<svg width="51" height="28" viewBox="0 0 51 28" fill="none" xmlns="http://www.w3.org/2000/svg">
<path d="M38.7301 0.683318C37.8249 -0.227773 36.357 -0.227773 35.4517 0.683318C34.5464 1.59441 34.5464 3.07188 35.4517 3.98312L43.0853 11.6666H2.31819C1.03793 11.6666 0 12.7114 0 14C0 15.2886 1.03793 16.3333 2.31819 16.3333H43.0853L35.4519 24.0168C34.5465 24.9279 34.5465 26.4054 35.4519 27.3166C35.9044 27.7721 36.4977 28 37.091 28C37.6843 28 38.2776 27.7721 38.7301 27.3165L50.321 15.6498C51.2263 14.7387 51.2263 13.2612 50.321 12.35L38.7301 0.683318Z" fill="#C54F00"/>
</svg>
