<svg width="51" height="28" viewBox="0 0 51 28" fill="none" xmlns="http://www.w3.org/2000/svg">
<path d="M48.6818 11.6667H7.9148L15.5483 3.98322C16.4536 3.07214 16.4536 1.59467 15.5483 0.683431C14.6431 -0.22781 13.1752 -0.22781 12.2699 0.683431L0.678994 12.3501C-0.226331 13.2612 -0.226331 14.7386 0.678994 15.6499L12.2699 27.3165C12.7225 27.7721 13.3158 28 13.9091 28C14.5024 28 15.0957 27.7721 15.5483 27.3165C16.4536 26.4054 16.4536 24.9279 15.5483 24.0167L7.9148 16.3334H48.6818C49.9621 16.3334 51 15.2887 51 14C51 12.7114 49.9621 11.6667 48.6818 11.6667Z" fill="black"/>
</svg>
