<svg xmlns="http://www.w3.org/2000/svg" version="1.1" xmlns:xlink="http://www.w3.org/1999/xlink" xmlns:svgjs="http://svgjs.com/svgjs" width="512" height="512" x="0" y="0" viewBox="0 0 48 48" style="enable-background:new 0 0 512 512" xml:space="preserve" class=""><g><path d="M39 6h-9V5a3 3 0 0 0-3-3h-7a3 3 0 0 0-3 3v1H9a3 3 0 0 0-3 3v1a3 3 0 0 0 3 3h30a3 3 0 0 0 3-3V9a3 3 0 0 0-3-3zM19 6V5a1 1 0 0 1 1-1h7a1 1 0 0 1 1 1v1zM39 15H9a5.029 5.029 0 0 1-.941-.1l.82 26.251a4.977 4.977 0 0 0 5 4.844h20.244a4.977 4.977 0 0 0 5-4.844l.82-26.251A5.029 5.029 0 0 1 39 15zM17.528 40H17.5a1 1 0 0 1-1-.972l-.5-18a1 1 0 0 1 2-.056l.5 18A1 1 0 0 1 17.528 40zM25 39a1 1 0 0 1-2 0V21a1 1 0 0 1 2 0zm6.5.028a1 1 0 0 1-1 .972h-.028a1 1 0 0 1-.972-1.028l.5-18A.972.972 0 0 1 31.028 20 1 1 0 0 1 32 21.028z" fill="#c54f00" data-original="#000000" class=""></path></g></svg>