<svg xmlns="http://www.w3.org/2000/svg" version="1.1" xmlns:xlink="http://www.w3.org/1999/xlink" xmlns:svgjs="http://svgjs.com/svgjs" width="512" height="512" x="0" y="0" viewBox="0 0 512 512" style="enable-background:new 0 0 512 512" xml:space="preserve" class=""><g><path d="M325.3 80.547 70.745 335.113 176.8 441.168l254.566-254.555zM507.606 89.165 422.747 4.307c-5.625-5.625-15.586-5.625-21.211 0L346.51 59.336l106.066 106.066 55.029-55.026a14.993 14.993 0 0 0 .001-21.211zM49.534 356.324l-10.613 10.613a15.01 15.01 0 0 0-3.809 6.431L.586 492.737a15.022 15.022 0 0 0 3.809 14.78A14.984 14.984 0 0 0 15 511.912c1.392 0 2.798-.19 4.175-.586l119.37-34.526a14.99 14.99 0 0 0 6.431-3.809l10.613-10.613L49.534 356.324z" fill="#c54f00" data-original="#000000"></path></g></svg>