<svg width="617" height="238" viewBox="0 0 617 238" fill="none" xmlns="http://www.w3.org/2000/svg">
<path d="M3 39.4545H18.7273L29.5455 65.8182H30.0909L40.9091 39.4545H56.6364V86H44.2727V59.0909H43.9091L33.5455 85.6364H26.0909L15.7273 58.9091H15.3636V86H3V39.4545ZM85.4432 70.7273V51.0909H97.9886V86H86.0795V79.3636H85.7159C84.9583 81.5909 83.6326 83.3333 81.7386 84.5909C79.8447 85.8333 77.5947 86.4545 74.9886 86.4545C72.5492 86.4545 70.4129 85.8939 68.5795 84.7727C66.7614 83.6515 65.3447 82.1061 64.3295 80.1364C63.3295 78.1667 62.822 75.9091 62.8068 73.3636V51.0909H75.3523V70.7273C75.3674 72.4545 75.8068 73.8106 76.6705 74.7955C77.5492 75.7803 78.7765 76.2727 80.3523 76.2727C81.3977 76.2727 82.2992 76.053 83.0568 75.6136C83.8295 75.1591 84.4205 74.5227 84.8295 73.7045C85.2538 72.8712 85.4583 71.8788 85.4432 70.7273ZM136.278 62.4545H124.733C124.672 61.7424 124.422 61.1288 123.983 60.6136C123.544 60.0985 122.975 59.7045 122.278 59.4318C121.597 59.1439 120.839 59 120.006 59C118.93 59 118.006 59.197 117.233 59.5909C116.46 59.9848 116.081 60.5455 116.097 61.2727C116.081 61.7879 116.301 62.2652 116.756 62.7045C117.225 63.1439 118.127 63.4848 119.46 63.7273L126.551 65C130.127 65.6515 132.786 66.75 134.528 68.2955C136.286 69.8258 137.172 71.8788 137.188 74.4545C137.172 76.9394 136.43 79.0985 134.96 80.9318C133.506 82.75 131.513 84.1591 128.983 85.1591C126.468 86.1439 123.597 86.6364 120.369 86.6364C115.036 86.6364 110.862 85.5455 107.847 83.3636C104.847 81.1818 103.172 78.303 102.824 74.7273H115.278C115.445 75.8333 115.991 76.6894 116.915 77.2955C117.854 77.8864 119.036 78.1818 120.46 78.1818C121.612 78.1818 122.559 77.9848 123.301 77.5909C124.059 77.197 124.445 76.6364 124.46 75.9091C124.445 75.2424 124.112 74.7121 123.46 74.3182C122.824 73.9242 121.824 73.6061 120.46 73.3636L114.278 72.2727C110.718 71.6515 108.051 70.4697 106.278 68.7273C104.506 66.9848 103.627 64.7424 103.642 62C103.627 59.5758 104.263 57.5227 105.551 55.8409C106.854 54.1439 108.71 52.8561 111.119 51.9773C113.544 51.0833 116.415 50.6364 119.733 50.6364C124.778 50.6364 128.756 51.6818 131.665 53.7727C134.589 55.8636 136.127 58.7576 136.278 62.4545ZM141.994 86V51.0909H154.54V86H141.994ZM148.267 47.4545C146.57 47.4545 145.116 46.8939 143.903 45.7727C142.691 44.6515 142.085 43.303 142.085 41.7273C142.085 40.1515 142.691 38.803 143.903 37.6818C145.116 36.5606 146.57 36 148.267 36C149.979 36 151.434 36.5606 152.631 37.6818C153.843 38.803 154.449 40.1515 154.449 41.7273C154.449 43.303 153.843 44.6515 152.631 45.7727C151.434 46.8939 149.979 47.4545 148.267 47.4545ZM183.477 99.0909V80.2727H183.295C182.811 81.4545 182.114 82.5152 181.205 83.4545C180.311 84.3788 179.22 85.1136 177.932 85.6591C176.659 86.1894 175.205 86.4545 173.568 86.4545C171.083 86.4545 168.795 85.803 166.705 84.5C164.629 83.197 162.962 81.2197 161.705 78.5682C160.462 75.9167 159.841 72.5758 159.841 68.5455C159.841 64.3333 160.492 60.9091 161.795 58.2727C163.114 55.6364 164.811 53.7045 166.886 52.4773C168.977 51.25 171.174 50.6364 173.477 50.6364C175.205 50.6364 176.72 50.9394 178.023 51.5455C179.326 52.1364 180.417 52.9318 181.295 53.9318C182.174 54.9167 182.841 56 183.295 57.1818H183.568V51.0909H196.023V99.0909H183.477ZM178.205 76.8182C179.356 76.8182 180.341 76.4848 181.159 75.8182C181.992 75.1364 182.629 74.1818 183.068 72.9545C183.523 71.7121 183.75 70.2424 183.75 68.5455C183.75 66.8182 183.523 65.3409 183.068 64.1136C182.629 62.8712 181.992 61.9242 181.159 61.2727C180.341 60.6061 179.356 60.2727 178.205 60.2727C177.053 60.2727 176.068 60.6061 175.25 61.2727C174.447 61.9242 173.826 62.8712 173.386 64.1136C172.962 65.3409 172.75 66.8182 172.75 68.5455C172.75 70.2727 172.962 71.7576 173.386 73C173.826 74.2273 174.447 75.1742 175.25 75.8409C176.068 76.4924 177.053 76.8182 178.205 76.8182ZM225.006 70.7273V51.0909H237.551V86H225.642V79.3636H225.278C224.521 81.5909 223.195 83.3333 221.301 84.5909C219.407 85.8333 217.157 86.4545 214.551 86.4545C212.112 86.4545 209.975 85.8939 208.142 84.7727C206.324 83.6515 204.907 82.1061 203.892 80.1364C202.892 78.1667 202.384 75.9091 202.369 73.3636V51.0909H214.915V70.7273C214.93 72.4545 215.369 73.8106 216.233 74.7955C217.112 75.7803 218.339 76.2727 219.915 76.2727C220.96 76.2727 221.862 76.053 222.619 75.6136C223.392 75.1591 223.983 74.5227 224.392 73.7045C224.816 72.8712 225.021 71.8788 225.006 70.7273ZM260.659 86.6364C256.932 86.6364 253.72 85.9242 251.023 84.5C248.341 83.0606 246.273 81 244.818 78.3182C243.379 75.6212 242.659 72.3939 242.659 68.6364C242.659 65.0303 243.386 61.8788 244.841 59.1818C246.295 56.4848 248.348 54.3864 251 52.8864C253.652 51.3864 256.78 50.6364 260.386 50.6364C263.023 50.6364 265.409 51.0455 267.545 51.8636C269.682 52.6818 271.508 53.8712 273.023 55.4318C274.538 56.9773 275.705 58.8561 276.523 61.0682C277.341 63.2803 277.75 65.7727 277.75 68.5455V71.4545H246.568V64.5455H266.205C266.189 63.5455 265.932 62.6667 265.432 61.9091C264.947 61.1364 264.288 60.5379 263.455 60.1136C262.636 59.6742 261.705 59.4545 260.659 59.4545C259.644 59.4545 258.712 59.6742 257.864 60.1136C257.015 60.5379 256.333 61.1288 255.818 61.8864C255.318 62.6439 255.053 63.5303 255.023 64.5455V72C255.023 73.1212 255.258 74.1212 255.727 75C256.197 75.8788 256.871 76.5682 257.75 77.0682C258.629 77.5682 259.689 77.8182 260.932 77.8182C261.795 77.8182 262.583 77.697 263.295 77.4545C264.023 77.2121 264.644 76.8636 265.159 76.4091C265.674 75.9394 266.053 75.3788 266.295 74.7273H277.75C277.356 77.1515 276.424 79.2576 274.955 81.0455C273.485 82.8182 271.538 84.197 269.114 85.1818C266.705 86.1515 263.886 86.6364 260.659 86.6364Z" fill="#C54F00"/>
<g clip-path="url(#clip0_1_145)">
<mask id="path-2-inside-1_1_145" fill="white">
<path d="M30.2164 229.388C29.8501 229.624 29.3606 229.517 29.1261 229.15C28.8902 228.783 28.9972 228.293 29.3635 228.058C61.7697 207.179 82.9576 217.014 101.593 225.664C116.932 232.784 130.499 239.082 147.22 225.981C149.955 223.838 151.011 221.669 151.244 218.763C148.763 219.622 146.168 220.227 143.508 220.61C133.745 222.017 125.295 219.56 118.925 214.772C115.573 212.254 112.801 209.095 110.72 205.52C108.639 201.945 107.241 197.946 106.637 193.747C105.422 185.282 107.444 176.008 113.607 167.753C113.624 167.725 113.645 167.698 113.667 167.672C123.308 156.419 130.266 150.45 136.204 145.355C137.674 144.095 139.08 142.888 140.448 141.668C138.964 129.568 138.208 118.94 139.06 112.035C139.735 106.567 142.943 102.778 146.655 101.156C148.149 100.501 149.731 100.197 151.265 100.273C152.818 100.35 154.325 100.814 155.65 101.696C158.504 103.598 160.502 107.42 160.275 113.455C160.197 115.528 159.785 117.754 158.97 120.067C158.223 122.185 157.134 124.387 155.648 126.621H155.651C150.881 133.791 146.685 138.177 142.117 142.299C142.95 148.97 143.998 156.079 145.114 163.246C149.231 163.235 153.312 164.032 156.969 165.762L156.972 165.765C158.864 166.673 160.612 167.839 162.189 169.214C166.658 173.106 169.799 178.673 171.102 184.758C172.403 190.838 171.874 197.447 169.015 203.431C168.624 204.247 168.19 205.053 167.712 205.843C170.085 206.218 172.226 206.758 174.175 207.43C178.508 208.924 181.895 211.062 184.763 213.455C187.108 215.411 189.186 217.255 191.117 218.967C199.054 226.005 204.455 230.792 214.534 230.956C214.373 230.014 214.404 229.027 214.637 228.037C215.422 224.697 218.507 221.28 224.236 219.39C228.573 217.96 232.538 218.732 235.017 220.546C236.011 221.272 236.774 222.17 237.242 223.167C237.721 224.189 237.889 225.312 237.677 226.462C237.264 228.701 235.4 231.015 231.56 232.799C227.883 234.51 224.085 234.62 221.735 233.677C220.897 233.341 220.22 232.864 219.764 232.269C218.724 232.389 217.726 232.473 216.768 232.52C217.135 233.135 217.637 233.695 218.262 234.169C220.757 236.059 225.209 236.646 231.305 234.405C233.453 233.615 235.148 232.375 236.373 230.806C237.649 229.174 238.43 227.172 238.694 224.949C240.519 209.617 238.004 169.559 237.996 169.443C237.972 169.007 238.303 168.632 238.738 168.607C238.785 168.604 238.83 168.607 238.874 168.61C246.945 169.56 255.201 168.713 263.097 166.466C271.465 164.086 279.43 160.136 286.348 155.094C286.702 154.837 287.196 154.916 287.452 155.27C287.563 155.424 287.612 155.605 287.601 155.781C287.613 157.079 287.877 184.499 287.357 199.954C290.17 199.434 293.326 199.128 296.668 199.015C307.679 198.644 320.8 200.371 330.493 203.444C328.485 197.161 327.231 189.431 327.652 182.335C328.077 175.18 330.201 168.638 334.954 164.769C341.102 159.765 345.337 155.99 347.95 152.831C349.212 151.306 350.085 149.937 350.607 148.647C348.17 147.111 346.262 145.28 345.214 143.827C344.875 143.356 344.616 142.913 344.452 142.521C344.002 141.449 344.143 140.616 344.657 140.036C345.06 139.584 345.671 139.336 346.386 139.289C346.999 139.248 347.708 139.355 348.422 139.605C350.363 140.284 352.423 142.058 352.73 144.839C352.845 145.87 352.776 146.892 352.508 147.936C352.994 148.203 353.498 148.457 354.018 148.691C357.459 150.235 361.593 150.905 365.666 149.187C366.613 148.788 367.561 148.257 368.5 147.578C369.355 146.959 370.133 146.277 370.835 145.544C374.307 141.92 375.883 137.098 376.149 132.564C376.295 130.076 376.049 127.684 375.508 125.635C375.329 125.618 375.149 125.599 374.967 125.577C372.378 125.262 369.533 124.348 367.168 123.056C365.524 122.156 364.097 121.065 363.125 119.848C362.202 118.692 361.885 117.735 362.016 116.989C362.136 116.302 362.577 115.825 363.251 115.547C363.781 115.328 364.466 115.245 365.243 115.29C367.69 115.431 371.359 116.872 373.955 119.368C374.292 119.692 374.614 120.07 374.919 120.491C375.627 121.473 376.229 122.708 376.697 124.118C378.351 124.15 379.762 123.859 380.63 123.165C380.875 122.97 381.076 122.736 381.222 122.466C382.153 120.757 382.236 118.44 382.353 115.202C382.509 110.891 382.721 105.018 385.022 96.6744C386.869 89.9788 390.585 85.675 394.974 83.1392C400.547 79.9191 407.192 79.577 412.45 80.8104C419.799 82.5342 421.913 79.273 426.576 72.0752C427.313 70.9387 428.112 69.7053 429.017 68.3574V68.3544L430.272 66.4896C437.302 56.0526 449.43 38.0463 449.959 30.9615C450.063 29.5783 449.823 28.2289 449.352 26.9749C447.68 26.9441 445.876 26.5153 444.244 25.859C443.074 25.3891 441.984 24.8003 441.093 24.163C440.156 23.4935 439.424 22.7534 439.018 22.0149C438.505 21.081 438.471 20.1471 439.097 19.3102C439.554 18.6979 440.193 18.3543 440.945 18.2456C442.032 18.09 443.37 18.4541 444.721 19.2162C446.004 19.9415 447.323 21.0355 448.448 22.3819C449.195 23.2747 449.862 24.2834 450.385 25.3744C451.316 25.2702 452.132 24.9736 452.733 24.4288C454.09 23.1983 454.18 20.4452 453.555 17.7243C451.83 17.7772 450.092 17.4586 448.693 16.8771C447.777 16.4968 446.988 15.9976 446.421 15.4088C445.793 14.7568 445.426 13.9918 445.429 13.1475V13.1446C445.434 12.2151 445.886 11.2416 446.93 10.2872C448.2 9.12423 449.538 9.11983 450.796 9.87456C451.512 10.3048 452.185 10.9934 452.779 11.8495C453.347 12.6674 453.857 13.6541 454.275 14.7186C454.442 15.1445 454.596 15.585 454.732 16.0328C455.328 15.9374 455.906 15.7832 456.445 15.5629C457.949 14.9492 458.481 12.9889 458.482 10.8393C458.289 10.7893 458.1 10.7277 457.919 10.6542C457.311 10.4105 456.773 10.0405 456.325 9.57648L456.275 9.52803C455.827 9.04641 455.475 8.46348 455.246 7.81006C454.818 6.58546 454.826 5.11418 455.428 3.60472C455.695 2.93809 456.079 2.5754 456.539 2.46968L456.602 2.45647C457.421 2.31257 458.192 3.06583 458.771 4.34329C459.224 5.34177 459.622 6.72349 459.849 8.19917H459.847C459.908 8.59416 459.955 8.99502 459.99 9.40028C460.351 9.37385 460.729 9.29456 461.121 9.15654C464.574 7.94662 466.211 0.648933 466.215 0.628376C466.309 0.201087 466.731 -0.0690889 467.158 0.0248854C467.235 0.0425055 467.307 0.0704041 467.373 0.107113L473.898 3.1833C474.292 3.36978 474.46 3.84112 474.274 4.23611C474.235 4.32127 474.182 4.39469 474.119 4.45783C474.107 4.47104 469.705 8.88342 470.54 11.8891C471.115 11.6101 471.726 11.3855 472.344 11.221C474.482 10.6542 476.767 10.8172 478.139 12.0213C478.873 12.6659 479.118 13.3031 479 13.8949C478.871 14.5512 478.32 15.0226 477.52 15.303C476.906 15.5189 476.102 15.6334 475.243 15.6364C473.445 15.6408 471.339 15.1356 470.074 14.005C469.448 14.4675 468.95 15.0138 468.675 15.6158C468.346 16.3309 468.34 17.1576 468.836 18.043C469.42 19.0884 470.438 20.2235 471.632 21.288C472.627 21.0604 473.628 20.943 474.58 20.9503C477.092 20.9709 479.285 21.8636 480.264 23.8973C480.753 24.9134 480.854 25.6769 480.653 26.2217L480.63 26.2833C480.34 26.9779 479.707 27.248 478.841 27.179C478.244 27.1306 477.498 26.9015 476.676 26.5374C475.052 25.8149 473.03 24.514 471.242 23.0221C471.018 23.0882 470.794 23.1602 470.571 23.238C469.245 23.702 467.99 24.376 466.983 25.207C465.401 26.5139 464.441 28.2142 464.854 30.0761C464.961 30.5577 465.127 31.0202 465.341 31.4637C465.73 31.4446 466.12 31.4372 466.512 31.4431C469.264 31.4857 472 32.167 473.927 33.4283C474.775 33.9848 475.477 34.6588 475.968 35.4458C476.566 36.4061 476.65 37.1873 476.354 37.7893C476.025 38.453 475.306 38.7834 474.346 38.8142C473.597 38.8377 472.658 38.6777 471.649 38.3517C469.173 37.55 466.17 35.7072 464.476 33.1141C462.714 33.3094 461.047 33.8042 459.75 34.6162C459.02 35.0729 458.41 35.6338 457.978 36.296C456.372 38.7555 445.281 62.8922 433.831 87.8086L432.435 90.848C435.945 93.0961 439.642 96.3646 442.703 101.104C449.395 111.467 444.183 122.331 439.39 132.327C437.904 135.426 436.459 138.439 435.439 141.318C435.073 142.352 434.778 143.349 434.544 144.303C436.652 146.933 437.878 150.751 437.406 153.583C437.132 155.237 436.605 156.241 435.991 156.665C435.341 157.116 434.662 157.05 434.037 156.523V156.52C433.598 156.151 433.198 155.52 432.895 154.67C432.174 152.654 431.878 149.131 432.825 144.728C432.086 143.938 431.252 143.321 430.367 142.988C429.457 142.644 428.479 142.601 427.486 142.983C425.507 143.745 423.418 146.134 421.507 151.028C418.053 159.872 415.75 166.591 415.324 171.537C415.067 174.506 415.508 176.815 416.816 178.561C418.039 177.347 419.473 176.517 421.003 176.263C421.74 176.14 422.496 176.15 423.255 176.313C425.398 176.773 426.724 178.106 427.169 179.486C427.395 180.182 427.401 180.897 427.182 181.536C426.958 182.192 426.502 182.762 425.812 183.147C424.512 183.872 422.33 183.909 419.272 182.451C418.347 182.01 417.548 181.505 416.865 180.934C415.873 182.308 415.119 184.013 414.729 185.837C414.403 187.361 414.333 188.962 414.591 190.516C415.242 194.434 414.374 200.56 411.795 207.219C409.644 212.771 406.298 218.721 401.648 224.096C400.67 225.227 399.636 226.227 398.563 227.106C397.048 228.348 395.449 229.359 393.811 230.168C397.439 232.018 401.245 233.533 405.073 234.609C410.601 236.164 416.169 236.8 421.306 236.197L421.326 236.194C432.181 234.466 438.329 228.852 445.022 222.741C448.568 219.502 452.267 216.124 456.895 213.082C459.297 211.504 461.697 210.05 464.026 208.698C461.678 207.096 460.27 204.461 460.469 200.639C460.469 200.597 460.474 200.554 460.481 200.512C460.525 200.252 460.581 199.974 460.647 199.679C461.816 194.406 465.259 190.593 469.444 188.28C473.601 185.984 478.509 185.169 482.639 185.878C482.874 185.918 483.127 185.969 483.398 186.029C484.644 186.307 485.821 186.752 486.846 187.339C488.214 188.123 489.335 189.17 490.032 190.431V190.434C490.748 191.726 491.013 193.227 490.648 194.879C490.474 195.67 490.156 196.488 489.678 197.325C488.211 199.893 485.347 202.043 481.89 203.495H481.887C479.145 204.646 476.015 205.369 472.905 205.52L471.334 206.394C470.093 207.082 468.802 207.799 467.476 208.549C468.632 208.872 469.917 209.021 471.274 209.004C473.316 208.981 475.523 208.585 477.706 207.862C484.289 205.682 490.567 200.544 491.382 193.684C493.661 174.534 490.522 124.525 490.513 124.381C490.488 123.945 490.819 123.57 491.255 123.545C491.608 123.525 491.92 123.74 492.039 124.055C496.237 133.713 501.718 136.897 506.013 139.39C512.702 143.272 516.728 145.613 510.258 164.82C508.094 171.246 509.781 174.795 514.541 176.461C519.653 178.251 528.152 178.058 539.167 176.933C553.064 175.513 559.086 186.191 565.746 198.007C574.544 213.611 584.503 231.275 616.034 223.97C616.459 223.873 616.883 224.139 616.981 224.565C617.078 224.99 616.812 225.415 616.388 225.513C583.713 233.082 573.445 214.871 564.373 198.782C557.979 187.44 552.201 177.191 539.321 178.507C528.097 179.654 519.387 179.834 514.022 177.955C508.305 175.953 506.247 171.789 508.763 164.318C514.821 146.332 511.214 144.237 505.224 140.759C501.299 138.48 496.426 135.65 492.319 128.209C493.002 140.4 494.861 177.824 492.952 193.872C492.055 201.415 485.287 207.022 478.2 209.369C475.876 210.138 473.503 210.559 471.286 210.586C469.226 210.609 467.297 210.288 465.656 209.587C463.101 211.057 460.441 212.652 457.764 214.412C453.233 217.392 449.585 220.722 446.089 223.916C439.218 230.188 432.91 235.949 421.587 237.756C421.555 237.763 421.523 237.769 421.488 237.774C416.143 238.402 410.368 237.744 404.649 236.137C400.323 234.919 396.025 233.157 391.968 230.993C388.85 232.237 385.66 232.803 382.707 232.883C377.555 233.022 373.084 231.657 370.949 229.802C370.691 229.579 370.467 229.351 370.279 229.121C369.437 228.089 369.151 227.008 369.349 226.009C369.517 225.155 370.036 224.39 370.857 223.794C371.606 223.249 372.623 222.839 373.862 222.64C377.144 222.107 382.131 223.032 387.947 226.792C389.279 227.654 390.654 228.473 392.058 229.243C393.96 228.415 395.823 227.313 397.565 225.885C398.578 225.055 399.549 224.117 400.457 223.067C404.979 217.838 408.234 212.051 410.325 206.654C412.802 200.262 413.644 194.447 413.035 190.781C412.742 189.022 412.819 187.219 413.184 185.512C413.639 183.385 414.544 181.394 415.74 179.808C414.03 177.739 413.442 174.978 413.75 171.403C414.192 166.277 416.531 159.433 420.038 150.456C422.131 145.096 424.559 142.424 426.927 141.513C428.314 140.979 429.669 141.036 430.927 141.51C431.761 141.825 432.548 142.325 433.266 142.958C433.462 142.255 433.688 141.532 433.95 140.794C434.986 137.867 436.457 134.802 437.968 131.649C442.579 122.036 447.589 111.586 441.38 101.969C438.508 97.5217 435.058 94.4323 431.772 92.2944C420.859 116.039 410.113 139.365 407.35 144.349C406.187 146.446 405.105 148.306 404.117 150.003C400.247 156.653 397.844 160.784 399.362 163.804C399.749 161.848 400.612 158.634 404.148 156.642C405.529 155.864 406.373 155.968 406.825 156.774C407.478 157.937 406.272 160.994 404.746 164.863C402.807 169.779 400.314 176.099 400.49 180.498C404.808 178.87 407.563 177.964 410.395 179.93C411.701 180.836 412.068 181.96 411.793 183.087C411.496 184.311 410.372 185.476 408.904 186.257C407.495 187.006 405.735 187.427 404.087 187.217C401.931 186.943 399.982 185.634 399.211 182.671C395.25 184.153 390.014 185.946 382.579 186.791C373.962 187.772 367.743 181.623 364.299 174.862C363.191 172.686 362.369 170.438 361.847 168.347C361.322 166.237 361.104 164.279 361.208 162.699C361.359 160.395 362.202 158.809 363.777 158.493L363.843 158.483L364.312 158.389C366.21 158.007 366.868 157.875 367.137 158.618C367.325 159.134 367.085 159.385 366.718 159.771C366.252 160.261 365.2 161.37 366.173 163.155C366.38 163.534 366.796 163.509 367.354 163.205C369.523 162.02 372.939 157.668 376.288 153.403C378.574 150.489 380.832 147.613 382.71 145.732C384.308 144.13 385.85 143.133 387.213 142.609C389.691 138.284 393.343 131.841 397.656 124.021C405.779 109.293 419.285 86.4826 419.323 86.4166C419.497 86.12 419.836 85.9805 420.154 86.0421C420.701 86.1141 425.503 86.8101 431.078 90.0272L432.398 87.1522C443.874 62.1771 454.993 37.9846 456.655 35.4355C457.216 34.5751 457.993 33.8571 458.916 33.2785C460.26 32.4372 461.926 31.8939 463.692 31.6311C463.534 31.2405 463.406 30.8382 463.314 30.4226C462.753 27.8926 463.965 25.6593 465.982 23.9927C467.093 23.075 468.453 22.3305 469.885 21.8093C468.859 20.8152 467.995 19.7874 467.455 18.8227C466.683 17.4395 466.703 16.1224 467.238 14.9594C467.633 14.1005 468.313 13.3443 469.154 12.7261L469.149 12.7158C467.973 9.68514 470.832 5.82633 472.253 4.16562L467.508 1.92786C466.876 4.12745 465.023 9.47223 461.637 10.6587C461.089 10.851 460.554 10.9597 460.041 10.992C459.995 13.66 459.197 16.1561 457.034 17.0401C456.429 17.2868 455.784 17.4644 455.12 17.579C455.781 20.7462 455.545 24.0147 453.785 25.6094C453.034 26.2907 452.065 26.693 450.985 26.8721C451.426 28.2025 451.641 29.6253 451.531 31.0878C450.97 38.5925 438.694 56.8191 431.579 67.3838L430.324 69.2472C429.445 70.554 428.641 71.7977 427.898 72.9445C422.818 80.7869 420.516 84.3374 412.089 82.3625C407.161 81.2069 400.947 81.5196 395.758 84.518C391.705 86.86 388.264 90.8598 386.542 97.1061C384.289 105.273 384.081 111.038 383.929 115.268C383.804 118.723 383.715 121.197 382.607 123.232C382.359 123.688 382.022 124.08 381.612 124.407C380.538 125.268 378.954 125.673 377.144 125.708C377.648 127.818 377.869 130.206 377.725 132.668C377.44 137.537 375.734 142.728 371.972 146.653C371.211 147.447 370.363 148.191 369.421 148.873C368.384 149.622 367.332 150.21 366.277 150.655C361.731 152.573 357.16 151.846 353.375 150.147C352.9 149.934 352.437 149.704 351.987 149.463C351.397 150.84 350.468 152.282 349.168 153.852C346.486 157.093 342.182 160.932 335.949 166.005C331.588 169.557 329.63 175.689 329.228 182.438C328.795 189.766 330.194 197.789 332.362 204.08C334.522 204.84 336.472 205.671 338.144 206.564C343.127 209.226 346.547 212.972 349.547 216.255L350.243 217.017L351.285 217.201C353.875 217.649 356.354 218.016 358.432 218.303C360.686 218.615 361.919 219.39 362.405 220.278C362.735 220.88 362.748 221.515 362.514 222.112C362.306 222.64 361.901 223.126 361.356 223.509H361.353C360.128 224.369 358.107 224.764 356.094 223.902C353.687 222.873 351.644 220.855 349.449 218.483C347.365 218.099 345.267 217.666 343.312 217.185C340.218 216.423 338.096 215.613 336.4 214.246C334.699 212.874 333.484 210.985 332.215 208.071C331.837 207.203 331.472 206.281 331.125 205.317C321.542 202.074 308.016 200.225 296.718 200.607C293.312 200.721 290.115 201.04 287.298 201.583C287.257 202.614 287.212 203.577 287.163 204.461C287.017 207.078 286.838 208.988 286.08 210.687C285.312 212.411 283.989 213.834 281.574 215.412C277.038 218.378 273.593 218.832 271.349 217.886C270.105 217.362 269.226 216.423 268.725 215.236C268.244 214.1 268.119 212.743 268.361 211.327C268.936 207.965 271.597 204.187 276.454 202.285C278.499 201.485 280.135 201.324 281.382 201.613C281.679 201.494 281.986 201.379 282.299 201.269C283.366 200.895 284.527 200.569 285.768 200.29C286.244 186.722 286.091 163.409 286.041 157.27C279.272 161.995 271.584 165.709 263.527 168.001C255.743 170.215 247.613 171.101 239.632 170.294C239.995 176.409 241.943 211.05 240.266 225.145C239.969 227.651 239.078 229.92 237.617 231.789C236.21 233.589 234.28 235.007 231.85 235.902C225.179 238.354 220.189 237.624 217.311 235.442C216.266 234.651 215.495 233.667 215.015 232.574C204.107 232.602 198.455 227.594 190.074 220.161C188.144 218.449 186.066 216.606 183.758 214.681C181.027 212.404 177.8 210.367 173.663 208.941C171.607 208.234 169.326 207.676 166.767 207.314C166.189 208.147 165.561 208.959 164.876 209.747C162.217 212.813 159.086 215.169 155.639 216.919C154.744 217.374 153.827 217.788 152.892 218.164C152.789 221.861 151.671 224.518 148.193 227.241C130.712 240.938 116.734 234.451 100.933 227.117C82.6645 218.637 61.8942 208.996 30.2179 229.404L30.2164 229.388ZM151.296 217.066C151.271 215.152 151.009 212.928 150.692 210.244L150.67 210.063C150.541 208.971 150.4 207.846 150.249 206.689C149.981 206.668 149.715 206.646 149.452 206.623C147.421 207.501 145.251 208.163 143.033 208.552C138.854 209.285 134.485 209.057 130.509 207.499C129.261 207.01 128.081 206.382 126.983 205.638C122.917 202.88 119.904 198.507 118.364 193.665C116.823 188.822 116.753 183.495 118.572 178.831C119.048 177.611 119.658 176.431 120.406 175.313L120.442 175.256C124.05 169.914 130.184 166.064 136.946 164.309C139.094 163.751 141.307 163.405 143.526 163.289C142.478 156.561 141.493 149.886 140.689 143.569C139.569 144.553 138.422 145.538 137.233 146.557C131.337 151.614 124.432 157.539 114.876 168.692C108.98 176.586 107.043 185.446 108.202 193.525C108.775 197.515 110.106 201.319 112.087 204.721C114.068 208.125 116.699 211.125 119.872 213.509C125.922 218.057 133.968 220.387 143.287 219.044C146.052 218.646 148.743 218 151.296 217.067V217.066ZM152.262 210.057C152.55 212.509 152.798 214.603 152.874 216.445C153.57 216.149 154.256 215.832 154.929 215.49C158.197 213.829 161.166 211.598 163.682 208.696C164.139 208.169 164.572 207.63 164.977 207.082C162.845 206.868 160.53 206.783 158.008 206.852C155.809 206.912 153.762 206.889 151.857 206.79C151.993 207.846 152.121 208.877 152.24 209.875L152.262 210.056V210.057ZM149.978 204.641C148.922 196.852 147.464 187.841 145.948 178.464L145.522 175.823C144.339 175.834 143.11 175.975 141.842 176.262C138.948 176.918 136.1 178.384 133.851 180.344C131.749 182.176 130.184 184.435 129.621 186.849C129.36 187.97 129.214 189.195 129.248 190.456C129.317 193.029 130.134 195.788 132.249 198.209C134.399 200.672 137.898 202.801 143.322 204.069C145.075 204.479 147.025 204.799 149.191 205.011C149.457 204.892 149.717 204.768 149.977 204.642L149.978 204.641ZM147.506 178.216C148.989 187.392 150.416 196.221 151.466 203.855C152.5 203.266 153.476 202.616 154.378 201.915C158.214 198.932 160.08 195.196 160.404 191.494C160.626 188.948 160.124 186.415 159.036 184.153C157.945 181.883 156.265 179.884 154.14 178.414C152.159 177.044 149.785 176.134 147.131 175.889L147.508 178.216H147.506ZM145.267 174.244C144.766 171.13 144.261 167.992 143.771 164.859C141.606 164.961 139.442 165.295 137.341 165.839C130.936 167.502 125.14 171.125 121.752 176.141L121.715 176.191C121.038 177.203 120.481 178.282 120.042 179.408C118.358 183.725 118.429 188.675 119.864 193.187C121.299 197.7 124.096 201.768 127.866 204.323C128.874 205.006 129.95 205.582 131.084 206.025C134.773 207.47 138.848 207.679 142.761 206.991C143.866 206.798 144.958 206.532 146.024 206.203C144.946 206.034 143.926 205.836 142.963 205.61C137.185 204.257 133.415 201.942 131.062 199.247C128.673 196.512 127.75 193.396 127.671 190.49C127.633 189.079 127.794 187.722 128.081 186.487C128.723 183.731 130.473 181.187 132.812 179.147C135.249 177.022 138.344 175.432 141.495 174.719C142.79 174.425 144.049 174.271 145.265 174.243L145.267 174.244ZM140.633 112.227C139.823 118.795 140.5 128.856 141.882 140.372C146.052 136.534 149.949 132.332 154.334 125.743H154.337C155.742 123.63 156.774 121.547 157.48 119.54C158.241 117.377 158.626 115.311 158.698 113.399C158.902 107.994 157.206 104.634 154.778 103.016C153.696 102.295 152.464 101.916 151.192 101.853C149.899 101.79 148.56 102.049 147.288 102.607C144.042 104.026 141.232 107.373 140.633 112.229V112.227ZM145.362 164.825C145.857 167.98 146.364 171.145 146.87 174.28C149.965 174.491 152.736 175.523 155.036 177.112C157.392 178.74 159.252 180.953 160.458 183.463C161.668 185.979 162.227 188.797 161.979 191.628C161.619 195.742 159.563 199.882 155.34 203.165C154.382 203.909 153.346 204.601 152.248 205.226C154.026 205.31 155.931 205.328 157.971 205.272C160.903 205.193 163.568 205.314 166 205.602C166.598 204.67 167.129 203.715 167.593 202.745C170.294 197.096 170.79 190.842 169.557 185.082C168.325 179.326 165.366 174.07 161.157 170.406C159.681 169.121 158.053 168.032 156.296 167.189C152.928 165.597 149.168 164.845 145.362 164.825ZM216.14 230.94C217.097 230.911 218.097 230.843 219.143 230.735C219.105 230.375 219.13 229.997 219.225 229.601C219.625 227.939 221.362 225.951 225.011 223.885C228.002 222.19 230.505 222.02 232.039 222.654C232.919 223.017 233.516 223.638 233.767 224.409C234.013 225.168 233.914 226.043 233.404 226.926C232.423 228.622 229.781 230.448 224.954 231.426C223.878 231.643 222.846 231.828 221.851 231.981C221.998 232.06 222.156 232.135 222.326 232.204C224.325 233.006 227.631 232.878 230.902 231.357C234.216 229.817 235.803 227.939 236.128 226.172C236.277 225.359 236.157 224.56 235.816 223.832C235.461 223.077 234.869 222.387 234.092 221.819C231.981 220.274 228.549 219.635 224.734 220.892C219.593 222.587 216.851 225.541 216.18 228.394C215.975 229.271 215.964 230.134 216.142 230.943L216.14 230.94ZM220.714 230.547C221.958 230.378 223.264 230.156 224.643 229.877C228.96 229.003 231.246 227.498 232.036 226.133C232.309 225.663 232.373 225.236 232.265 224.898C232.159 224.572 231.874 224.294 231.44 224.115C230.291 223.641 228.302 223.833 225.783 225.261C222.563 227.084 221.063 228.702 220.758 229.974C220.71 230.177 220.696 230.367 220.714 230.548V230.547ZM285.586 204.359C285.629 203.599 285.668 202.78 285.704 201.909C284.84 202.115 284.021 202.344 283.252 202.598C283.665 203.006 283.97 203.504 284.171 204.066C284.462 204.886 284.525 205.843 284.38 206.849L284.374 206.883C283.988 209.448 282.203 212.42 279.339 214.224C277.078 215.649 274.938 216.226 273.421 216.069C272.678 215.991 272.057 215.741 271.604 215.332C271.585 215.314 271.566 215.296 271.55 215.277C271.096 214.84 270.835 214.257 270.816 213.539C270.787 212.465 271.33 211.069 272.642 209.414C273.517 208.311 274.397 207.383 275.243 206.626C275.788 205.391 276.726 204.322 277.992 203.406C277.687 203.498 277.367 203.611 277.029 203.743C272.747 205.42 270.414 208.687 269.919 211.577C269.727 212.699 269.816 213.752 270.177 214.606C270.518 215.412 271.115 216.053 271.96 216.408C273.764 217.167 276.684 216.704 280.714 214.069C282.849 212.672 284.001 211.457 284.64 210.025C285.289 208.567 285.45 206.798 285.586 204.357V204.359ZM281.696 203.389C281.621 203.348 281.543 203.31 281.461 203.275C280.926 203.505 280.426 203.752 279.965 204.014C280.129 203.996 280.286 203.992 280.434 204C281.089 204.037 281.594 204.304 281.905 204.789C282.128 205.138 282.226 205.577 282.175 206.099V206.107C281.917 208.518 280.61 210.712 279.276 211.975C278.784 212.44 278.271 212.793 277.79 212.998C277.191 213.254 276.613 213.292 276.122 213.069L276.073 213.044C275.69 212.853 275.395 212.523 275.223 212.035C274.894 211.113 274.726 210.238 274.702 209.411C274.428 209.721 274.151 210.051 273.874 210.399C272.812 211.74 272.368 212.777 272.388 213.496C272.396 213.768 272.481 213.979 272.627 214.129L272.658 214.155C272.86 214.337 273.175 214.453 273.578 214.496C274.777 214.621 276.546 214.116 278.495 212.888C280.958 211.336 282.488 208.809 282.811 206.643L282.814 206.621C282.924 205.868 282.883 205.169 282.679 204.595C282.494 204.077 282.169 203.655 281.694 203.391L281.696 203.389ZM279.241 205.83C278.476 206.14 277.557 206.712 276.565 207.563C276.508 207.721 276.458 207.883 276.418 208.047C276.172 209.057 276.253 210.207 276.714 211.501C276.739 211.57 276.758 211.609 276.772 211.621L276.779 211.624C276.845 211.655 276.984 211.624 277.173 211.543H277.176C277.481 211.414 277.833 211.166 278.195 210.822C279.304 209.774 280.391 207.947 280.605 205.94C280.618 205.792 280.608 205.693 280.576 205.643C280.554 205.608 280.473 205.586 280.347 205.579C280.07 205.564 279.694 205.646 279.239 205.83H279.241ZM337.401 207.941C336.118 207.256 334.664 206.607 333.074 206C333.266 206.488 333.462 206.962 333.661 207.422C334.825 210.095 335.911 211.805 337.388 212.997C338.874 214.195 340.817 214.925 343.687 215.631C344.959 215.945 346.297 216.238 347.655 216.511C344.913 213.525 341.758 210.27 337.4 207.941H337.401ZM352.059 218.923C353.595 220.475 355.091 221.738 356.71 222.431C358.169 223.055 359.599 222.795 360.447 222.2C360.741 221.992 360.95 221.756 361.042 221.521C361.107 221.355 361.107 221.183 361.02 221.026C360.752 220.538 359.904 220.088 358.223 219.856C356.382 219.602 354.256 219.289 352.061 218.923H352.059ZM351.077 147.07C351.211 146.371 351.235 145.688 351.161 145.008C350.931 142.938 349.373 141.609 347.903 141.093C347.392 140.914 346.901 140.836 346.492 140.864C346.185 140.885 345.951 140.958 345.838 141.085C345.724 141.214 345.727 141.478 345.904 141.902C346.023 142.184 346.222 142.524 346.493 142.899C347.393 144.149 349.005 145.71 351.077 147.07ZM374.979 123.977C374.604 122.99 374.153 122.122 373.638 121.409C373.394 121.07 373.133 120.766 372.859 120.501C370.542 118.272 367.302 116.988 365.156 116.864C364.607 116.832 364.155 116.877 363.849 117.004C363.689 117.07 363.588 117.155 363.572 117.253V117.256C363.516 117.572 363.745 118.095 364.354 118.858C365.187 119.901 366.449 120.858 367.921 121.663C370.06 122.832 372.623 123.664 374.979 123.977ZM448.596 25.3583C448.199 24.6535 447.736 23.9927 447.232 23.3907C446.223 22.1852 445.061 21.2161 443.945 20.5847C442.894 19.99 441.905 19.6993 441.163 19.8065C440.822 19.8549 440.542 20.0003 440.353 20.2514C440.152 20.5201 440.189 20.8681 440.397 21.2469C440.685 21.774 441.255 22.3335 442.003 22.868C442.794 23.4347 443.772 23.9604 444.827 24.3848C446.045 24.8752 447.359 25.2305 448.596 25.3597V25.3583ZM453.11 16.1473C453.013 15.8566 452.909 15.5688 452.799 15.2884C452.427 14.3413 451.975 13.4676 451.476 12.7481C451.002 12.0653 450.494 11.5323 449.981 11.2254C449.339 10.8393 448.649 10.8466 447.988 11.4516C447.301 12.0815 447.002 12.6497 447 13.1416V13.1446C447 13.5469 447.202 13.9433 447.553 14.306C447.964 14.7333 448.57 15.1092 449.292 15.4088C450.4 15.8684 451.75 16.1385 453.108 16.1473H453.11ZM458.378 9.12717C458.352 8.89517 458.321 8.66317 458.286 8.43558H458.283C458.076 7.09791 457.723 5.8645 457.327 4.98937C457.058 4.39322 456.879 4.00998 456.872 4.01145H456.861C456.82 4.02613 456.942 4.06137 456.892 4.18765C456.441 5.31975 456.428 6.40045 456.735 7.28293C456.889 7.7249 457.127 8.11842 457.43 8.44292L457.462 8.47963C457.722 8.74834 458.031 8.96859 458.381 9.1257L458.378 9.12717ZM471.537 13.1651C472.492 13.7789 473.956 14.0535 475.241 14.0505C475.924 14.0505 476.546 13.9639 477 13.8039C477.27 13.7099 477.44 13.6306 477.448 13.5851C477.456 13.5454 477.352 13.4265 477.1 13.2048C476.151 12.3737 474.424 12.3017 472.746 12.7452C472.334 12.8538 471.926 12.9948 471.537 13.1637V13.1651ZM473.241 22.6007C474.629 23.6477 476.091 24.5375 477.314 25.0808C477.979 25.3759 478.55 25.5594 478.964 25.5932C479.109 25.605 479.156 25.7004 479.17 25.6637L479.176 25.6505C479.22 25.5051 479.122 25.1615 478.839 24.5771C478.156 23.1616 476.499 22.5391 474.564 22.5214C474.133 22.5185 473.688 22.5449 473.238 22.5993L473.241 22.6007ZM466.347 33.0142C467.866 34.8702 470.183 36.2108 472.133 36.8422C472.971 37.1139 473.726 37.2475 474.298 37.2299C474.661 37.2181 474.896 37.1697 474.938 37.0845C474.991 36.9773 474.903 36.7189 474.627 36.2769C474.265 35.6969 473.726 35.1845 473.061 34.7484C471.381 33.6486 468.953 33.0554 466.485 33.0172H466.346L466.347 33.0142ZM405.971 143.569C408.7 138.647 419.484 115.237 430.418 91.4471C425.836 88.7733 421.794 87.9011 420.412 87.6647C418.473 90.9464 406.494 111.254 399.041 124.768C395.122 131.875 391.744 137.85 389.297 142.134L389.442 142.132H389.465C390.23 142.129 390.891 142.306 391.419 142.625C391.989 142.97 392.402 143.475 392.619 144.095C392.949 145.033 392.81 146.216 392.065 147.459C389.394 151.921 384.149 149.73 384.134 149.724C383.73 149.563 383.533 149.1 383.696 148.697C383.71 148.658 383.728 148.622 383.749 148.588C383.754 148.578 384.453 147.387 385.704 145.221C385.104 145.654 384.477 146.189 383.828 146.839C382.009 148.661 379.784 151.497 377.531 154.367C374.085 158.756 370.571 163.235 368.109 164.58C366.68 165.361 365.531 165.262 364.788 163.898C363.842 162.16 364.101 160.85 364.604 159.929L364.157 160.02L364.089 160.037C363.32 160.191 362.889 161.232 362.788 162.785C362.696 164.21 362.898 166.004 363.384 167.958C363.875 169.93 364.656 172.059 365.711 174.133C368.9 180.394 374.603 186.095 382.409 185.207C389.832 184.363 395.031 182.542 398.947 181.072C398.548 176.263 401.216 169.499 403.278 164.271C404.649 160.793 405.734 158.044 405.449 157.539C405.4 157.451 405.344 157.778 404.923 158.015C401.711 159.825 401.123 162.97 400.821 164.585C400.668 165.409 400.566 165.963 400.087 166.224C399.409 166.594 398.85 166.158 398.044 164.675C395.968 160.862 398.554 156.417 402.753 149.202C403.755 147.479 404.853 145.592 405.974 143.572L405.971 143.569ZM399.332 164.654C399.242 164.826 399.171 164.919 399.33 164.832C399.426 164.779 399.384 164.738 399.332 164.654ZM400.7 182.096C401.254 184.42 402.694 185.433 404.283 185.637C405.59 185.805 407.01 185.457 408.161 184.844C409.252 184.263 410.072 183.471 410.259 182.703C410.379 182.21 410.174 181.687 409.499 181.217C407.262 179.667 404.739 180.568 400.7 182.096ZM389.449 143.71C389.098 143.713 388.709 143.77 388.289 143.889C387.053 146.043 386.136 147.623 385.611 148.525C386.91 148.815 389.319 148.968 390.708 146.647C391.193 145.836 391.306 145.128 391.126 144.615C391.033 144.352 390.853 144.133 390.6 143.98C390.308 143.804 389.92 143.706 389.452 143.71H389.449ZM434.111 146.407C433.551 149.829 433.815 152.526 434.388 154.129C434.598 154.715 434.829 155.115 435.051 155.303L435.07 155.322L435.102 155.351C435.38 155.15 435.651 154.501 435.848 153.314C436.189 151.265 435.464 148.579 434.11 146.406L434.111 146.407ZM417.903 179.707C418.483 180.203 419.163 180.637 419.953 181.013C422.478 182.217 424.145 182.263 425.047 181.759C425.373 181.577 425.585 181.314 425.688 181.015C425.796 180.699 425.789 180.331 425.67 179.962C425.38 179.063 424.457 178.182 422.93 177.855C422.365 177.735 421.806 177.726 421.263 177.817C420.059 178.018 418.907 178.701 417.903 179.707ZM382.669 231.294C385.056 231.229 387.607 230.826 390.14 229.971C389.103 229.376 388.086 228.757 387.091 228.114C381.643 224.592 377.069 223.71 374.107 224.192C373.128 224.35 372.343 224.66 371.781 225.068C371.292 225.424 370.989 225.852 370.899 226.306C370.794 226.845 370.98 227.469 371.502 228.109C371.639 228.278 371.801 228.442 371.979 228.598C373.855 230.228 377.91 231.423 382.667 231.295L382.669 231.294ZM465.588 207.795C467.029 206.972 468.436 206.188 469.788 205.436C467.25 205.055 466.309 203.807 466.462 202.121C466.668 199.835 469.394 196.711 472.705 194.23C475.987 191.769 479.905 189.878 482.538 190.025C484.698 190.145 486.082 191.414 485.917 194.4C485.744 197.519 482.006 200.269 476.487 203.483C478.155 203.153 479.776 202.66 481.275 202.03C484.428 200.704 487.015 198.786 488.302 196.534C488.703 195.83 488.966 195.162 489.105 194.534C489.382 193.286 489.185 192.16 488.653 191.195C488.104 190.201 487.189 189.358 486.062 188.71C485.166 188.196 484.141 187.809 483.06 187.568C482.857 187.523 482.627 187.478 482.375 187.434C478.578 186.782 474.054 187.539 470.207 189.663C466.387 191.773 463.248 195.239 462.19 200.015C462.143 200.23 462.095 200.47 462.049 200.732C461.869 204.257 463.298 206.551 465.593 207.795H465.588ZM472.463 203.95C479.285 200.144 484.181 197.196 484.341 194.314C484.443 192.456 483.668 191.672 482.452 191.605C480.198 191.48 476.675 193.226 473.65 195.494C470.653 197.742 468.195 200.444 468.031 202.263C467.954 203.121 468.645 203.757 470.482 203.93C471.137 203.965 471.799 203.971 472.463 203.949V203.95ZM492.034 124.049C492.062 124.122 492.08 124.202 492.084 124.284L492.034 124.049Z"/>
</mask>
<path d="M30.2164 229.388C29.8501 229.624 29.3606 229.517 29.1261 229.15C28.8902 228.783 28.9972 228.293 29.3635 228.058C61.7697 207.179 82.9576 217.014 101.593 225.664C116.932 232.784 130.499 239.082 147.22 225.981C149.955 223.838 151.011 221.669 151.244 218.763C148.763 219.622 146.168 220.227 143.508 220.61C133.745 222.017 125.295 219.56 118.925 214.772C115.573 212.254 112.801 209.095 110.72 205.52C108.639 201.945 107.241 197.946 106.637 193.747C105.422 185.282 107.444 176.008 113.607 167.753C113.624 167.725 113.645 167.698 113.667 167.672C123.308 156.419 130.266 150.45 136.204 145.355C137.674 144.095 139.08 142.888 140.448 141.668C138.964 129.568 138.208 118.94 139.06 112.035C139.735 106.567 142.943 102.778 146.655 101.156C148.149 100.501 149.731 100.197 151.265 100.273C152.818 100.35 154.325 100.814 155.65 101.696C158.504 103.598 160.502 107.42 160.275 113.455C160.197 115.528 159.785 117.754 158.97 120.067C158.223 122.185 157.134 124.387 155.648 126.621H155.651C150.881 133.791 146.685 138.177 142.117 142.299C142.95 148.97 143.998 156.079 145.114 163.246C149.231 163.235 153.312 164.032 156.969 165.762L156.972 165.765C158.864 166.673 160.612 167.839 162.189 169.214C166.658 173.106 169.799 178.673 171.102 184.758C172.403 190.838 171.874 197.447 169.015 203.431C168.624 204.247 168.19 205.053 167.712 205.843C170.085 206.218 172.226 206.758 174.175 207.43C178.508 208.924 181.895 211.062 184.763 213.455C187.108 215.411 189.186 217.255 191.117 218.967C199.054 226.005 204.455 230.792 214.534 230.956C214.373 230.014 214.404 229.027 214.637 228.037C215.422 224.697 218.507 221.28 224.236 219.39C228.573 217.96 232.538 218.732 235.017 220.546C236.011 221.272 236.774 222.17 237.242 223.167C237.721 224.189 237.889 225.312 237.677 226.462C237.264 228.701 235.4 231.015 231.56 232.799C227.883 234.51 224.085 234.62 221.735 233.677C220.897 233.341 220.22 232.864 219.764 232.269C218.724 232.389 217.726 232.473 216.768 232.52C217.135 233.135 217.637 233.695 218.262 234.169C220.757 236.059 225.209 236.646 231.305 234.405C233.453 233.615 235.148 232.375 236.373 230.806C237.649 229.174 238.43 227.172 238.694 224.949C240.519 209.617 238.004 169.559 237.996 169.443C237.972 169.007 238.303 168.632 238.738 168.607C238.785 168.604 238.83 168.607 238.874 168.61C246.945 169.56 255.201 168.713 263.097 166.466C271.465 164.086 279.43 160.136 286.348 155.094C286.702 154.837 287.196 154.916 287.452 155.27C287.563 155.424 287.612 155.605 287.601 155.781C287.613 157.079 287.877 184.499 287.357 199.954C290.17 199.434 293.326 199.128 296.668 199.015C307.679 198.644 320.8 200.371 330.493 203.444C328.485 197.161 327.231 189.431 327.652 182.335C328.077 175.18 330.201 168.638 334.954 164.769C341.102 159.765 345.337 155.99 347.95 152.831C349.212 151.306 350.085 149.937 350.607 148.647C348.17 147.111 346.262 145.28 345.214 143.827C344.875 143.356 344.616 142.913 344.452 142.521C344.002 141.449 344.143 140.616 344.657 140.036C345.06 139.584 345.671 139.336 346.386 139.289C346.999 139.248 347.708 139.355 348.422 139.605C350.363 140.284 352.423 142.058 352.73 144.839C352.845 145.87 352.776 146.892 352.508 147.936C352.994 148.203 353.498 148.457 354.018 148.691C357.459 150.235 361.593 150.905 365.666 149.187C366.613 148.788 367.561 148.257 368.5 147.578C369.355 146.959 370.133 146.277 370.835 145.544C374.307 141.92 375.883 137.098 376.149 132.564C376.295 130.076 376.049 127.684 375.508 125.635C375.329 125.618 375.149 125.599 374.967 125.577C372.378 125.262 369.533 124.348 367.168 123.056C365.524 122.156 364.097 121.065 363.125 119.848C362.202 118.692 361.885 117.735 362.016 116.989C362.136 116.302 362.577 115.825 363.251 115.547C363.781 115.328 364.466 115.245 365.243 115.29C367.69 115.431 371.359 116.872 373.955 119.368C374.292 119.692 374.614 120.07 374.919 120.491C375.627 121.473 376.229 122.708 376.697 124.118C378.351 124.15 379.762 123.859 380.63 123.165C380.875 122.97 381.076 122.736 381.222 122.466C382.153 120.757 382.236 118.44 382.353 115.202C382.509 110.891 382.721 105.018 385.022 96.6744C386.869 89.9788 390.585 85.675 394.974 83.1392C400.547 79.9191 407.192 79.577 412.45 80.8104C419.799 82.5342 421.913 79.273 426.576 72.0752C427.313 70.9387 428.112 69.7053 429.017 68.3574V68.3544L430.272 66.4896C437.302 56.0526 449.43 38.0463 449.959 30.9615C450.063 29.5783 449.823 28.2289 449.352 26.9749C447.68 26.9441 445.876 26.5153 444.244 25.859C443.074 25.3891 441.984 24.8003 441.093 24.163C440.156 23.4935 439.424 22.7534 439.018 22.0149C438.505 21.081 438.471 20.1471 439.097 19.3102C439.554 18.6979 440.193 18.3543 440.945 18.2456C442.032 18.09 443.37 18.4541 444.721 19.2162C446.004 19.9415 447.323 21.0355 448.448 22.3819C449.195 23.2747 449.862 24.2834 450.385 25.3744C451.316 25.2702 452.132 24.9736 452.733 24.4288C454.09 23.1983 454.18 20.4452 453.555 17.7243C451.83 17.7772 450.092 17.4586 448.693 16.8771C447.777 16.4968 446.988 15.9976 446.421 15.4088C445.793 14.7568 445.426 13.9918 445.429 13.1475V13.1446C445.434 12.2151 445.886 11.2416 446.93 10.2872C448.2 9.12423 449.538 9.11983 450.796 9.87456C451.512 10.3048 452.185 10.9934 452.779 11.8495C453.347 12.6674 453.857 13.6541 454.275 14.7186C454.442 15.1445 454.596 15.585 454.732 16.0328C455.328 15.9374 455.906 15.7832 456.445 15.5629C457.949 14.9492 458.481 12.9889 458.482 10.8393C458.289 10.7893 458.1 10.7277 457.919 10.6542C457.311 10.4105 456.773 10.0405 456.325 9.57648L456.275 9.52803C455.827 9.04641 455.475 8.46348 455.246 7.81006C454.818 6.58546 454.826 5.11418 455.428 3.60472C455.695 2.93809 456.079 2.5754 456.539 2.46968L456.602 2.45647C457.421 2.31257 458.192 3.06583 458.771 4.34329C459.224 5.34177 459.622 6.72349 459.849 8.19917H459.847C459.908 8.59416 459.955 8.99502 459.99 9.40028C460.351 9.37385 460.729 9.29456 461.121 9.15654C464.574 7.94662 466.211 0.648933 466.215 0.628376C466.309 0.201087 466.731 -0.0690889 467.158 0.0248854C467.235 0.0425055 467.307 0.0704041 467.373 0.107113L473.898 3.1833C474.292 3.36978 474.46 3.84112 474.274 4.23611C474.235 4.32127 474.182 4.39469 474.119 4.45783C474.107 4.47104 469.705 8.88342 470.54 11.8891C471.115 11.6101 471.726 11.3855 472.344 11.221C474.482 10.6542 476.767 10.8172 478.139 12.0213C478.873 12.6659 479.118 13.3031 479 13.8949C478.871 14.5512 478.32 15.0226 477.52 15.303C476.906 15.5189 476.102 15.6334 475.243 15.6364C473.445 15.6408 471.339 15.1356 470.074 14.005C469.448 14.4675 468.95 15.0138 468.675 15.6158C468.346 16.3309 468.34 17.1576 468.836 18.043C469.42 19.0884 470.438 20.2235 471.632 21.288C472.627 21.0604 473.628 20.943 474.58 20.9503C477.092 20.9709 479.285 21.8636 480.264 23.8973C480.753 24.9134 480.854 25.6769 480.653 26.2217L480.63 26.2833C480.34 26.9779 479.707 27.248 478.841 27.179C478.244 27.1306 477.498 26.9015 476.676 26.5374C475.052 25.8149 473.03 24.514 471.242 23.0221C471.018 23.0882 470.794 23.1602 470.571 23.238C469.245 23.702 467.99 24.376 466.983 25.207C465.401 26.5139 464.441 28.2142 464.854 30.0761C464.961 30.5577 465.127 31.0202 465.341 31.4637C465.73 31.4446 466.12 31.4372 466.512 31.4431C469.264 31.4857 472 32.167 473.927 33.4283C474.775 33.9848 475.477 34.6588 475.968 35.4458C476.566 36.4061 476.65 37.1873 476.354 37.7893C476.025 38.453 475.306 38.7834 474.346 38.8142C473.597 38.8377 472.658 38.6777 471.649 38.3517C469.173 37.55 466.17 35.7072 464.476 33.1141C462.714 33.3094 461.047 33.8042 459.75 34.6162C459.02 35.0729 458.41 35.6338 457.978 36.296C456.372 38.7555 445.281 62.8922 433.831 87.8086L432.435 90.848C435.945 93.0961 439.642 96.3646 442.703 101.104C449.395 111.467 444.183 122.331 439.39 132.327C437.904 135.426 436.459 138.439 435.439 141.318C435.073 142.352 434.778 143.349 434.544 144.303C436.652 146.933 437.878 150.751 437.406 153.583C437.132 155.237 436.605 156.241 435.991 156.665C435.341 157.116 434.662 157.05 434.037 156.523V156.52C433.598 156.151 433.198 155.52 432.895 154.67C432.174 152.654 431.878 149.131 432.825 144.728C432.086 143.938 431.252 143.321 430.367 142.988C429.457 142.644 428.479 142.601 427.486 142.983C425.507 143.745 423.418 146.134 421.507 151.028C418.053 159.872 415.75 166.591 415.324 171.537C415.067 174.506 415.508 176.815 416.816 178.561C418.039 177.347 419.473 176.517 421.003 176.263C421.74 176.14 422.496 176.15 423.255 176.313C425.398 176.773 426.724 178.106 427.169 179.486C427.395 180.182 427.401 180.897 427.182 181.536C426.958 182.192 426.502 182.762 425.812 183.147C424.512 183.872 422.33 183.909 419.272 182.451C418.347 182.01 417.548 181.505 416.865 180.934C415.873 182.308 415.119 184.013 414.729 185.837C414.403 187.361 414.333 188.962 414.591 190.516C415.242 194.434 414.374 200.56 411.795 207.219C409.644 212.771 406.298 218.721 401.648 224.096C400.67 225.227 399.636 226.227 398.563 227.106C397.048 228.348 395.449 229.359 393.811 230.168C397.439 232.018 401.245 233.533 405.073 234.609C410.601 236.164 416.169 236.8 421.306 236.197L421.326 236.194C432.181 234.466 438.329 228.852 445.022 222.741C448.568 219.502 452.267 216.124 456.895 213.082C459.297 211.504 461.697 210.05 464.026 208.698C461.678 207.096 460.27 204.461 460.469 200.639C460.469 200.597 460.474 200.554 460.481 200.512C460.525 200.252 460.581 199.974 460.647 199.679C461.816 194.406 465.259 190.593 469.444 188.28C473.601 185.984 478.509 185.169 482.639 185.878C482.874 185.918 483.127 185.969 483.398 186.029C484.644 186.307 485.821 186.752 486.846 187.339C488.214 188.123 489.335 189.17 490.032 190.431V190.434C490.748 191.726 491.013 193.227 490.648 194.879C490.474 195.67 490.156 196.488 489.678 197.325C488.211 199.893 485.347 202.043 481.89 203.495H481.887C479.145 204.646 476.015 205.369 472.905 205.52L471.334 206.394C470.093 207.082 468.802 207.799 467.476 208.549C468.632 208.872 469.917 209.021 471.274 209.004C473.316 208.981 475.523 208.585 477.706 207.862C484.289 205.682 490.567 200.544 491.382 193.684C493.661 174.534 490.522 124.525 490.513 124.381C490.488 123.945 490.819 123.57 491.255 123.545C491.608 123.525 491.92 123.74 492.039 124.055C496.237 133.713 501.718 136.897 506.013 139.39C512.702 143.272 516.728 145.613 510.258 164.82C508.094 171.246 509.781 174.795 514.541 176.461C519.653 178.251 528.152 178.058 539.167 176.933C553.064 175.513 559.086 186.191 565.746 198.007C574.544 213.611 584.503 231.275 616.034 223.97C616.459 223.873 616.883 224.139 616.981 224.565C617.078 224.99 616.812 225.415 616.388 225.513C583.713 233.082 573.445 214.871 564.373 198.782C557.979 187.44 552.201 177.191 539.321 178.507C528.097 179.654 519.387 179.834 514.022 177.955C508.305 175.953 506.247 171.789 508.763 164.318C514.821 146.332 511.214 144.237 505.224 140.759C501.299 138.48 496.426 135.65 492.319 128.209C493.002 140.4 494.861 177.824 492.952 193.872C492.055 201.415 485.287 207.022 478.2 209.369C475.876 210.138 473.503 210.559 471.286 210.586C469.226 210.609 467.297 210.288 465.656 209.587C463.101 211.057 460.441 212.652 457.764 214.412C453.233 217.392 449.585 220.722 446.089 223.916C439.218 230.188 432.91 235.949 421.587 237.756C421.555 237.763 421.523 237.769 421.488 237.774C416.143 238.402 410.368 237.744 404.649 236.137C400.323 234.919 396.025 233.157 391.968 230.993C388.85 232.237 385.66 232.803 382.707 232.883C377.555 233.022 373.084 231.657 370.949 229.802C370.691 229.579 370.467 229.351 370.279 229.121C369.437 228.089 369.151 227.008 369.349 226.009C369.517 225.155 370.036 224.39 370.857 223.794C371.606 223.249 372.623 222.839 373.862 222.64C377.144 222.107 382.131 223.032 387.947 226.792C389.279 227.654 390.654 228.473 392.058 229.243C393.96 228.415 395.823 227.313 397.565 225.885C398.578 225.055 399.549 224.117 400.457 223.067C404.979 217.838 408.234 212.051 410.325 206.654C412.802 200.262 413.644 194.447 413.035 190.781C412.742 189.022 412.819 187.219 413.184 185.512C413.639 183.385 414.544 181.394 415.74 179.808C414.03 177.739 413.442 174.978 413.75 171.403C414.192 166.277 416.531 159.433 420.038 150.456C422.131 145.096 424.559 142.424 426.927 141.513C428.314 140.979 429.669 141.036 430.927 141.51C431.761 141.825 432.548 142.325 433.266 142.958C433.462 142.255 433.688 141.532 433.95 140.794C434.986 137.867 436.457 134.802 437.968 131.649C442.579 122.036 447.589 111.586 441.38 101.969C438.508 97.5217 435.058 94.4323 431.772 92.2944C420.859 116.039 410.113 139.365 407.35 144.349C406.187 146.446 405.105 148.306 404.117 150.003C400.247 156.653 397.844 160.784 399.362 163.804C399.749 161.848 400.612 158.634 404.148 156.642C405.529 155.864 406.373 155.968 406.825 156.774C407.478 157.937 406.272 160.994 404.746 164.863C402.807 169.779 400.314 176.099 400.49 180.498C404.808 178.87 407.563 177.964 410.395 179.93C411.701 180.836 412.068 181.96 411.793 183.087C411.496 184.311 410.372 185.476 408.904 186.257C407.495 187.006 405.735 187.427 404.087 187.217C401.931 186.943 399.982 185.634 399.211 182.671C395.25 184.153 390.014 185.946 382.579 186.791C373.962 187.772 367.743 181.623 364.299 174.862C363.191 172.686 362.369 170.438 361.847 168.347C361.322 166.237 361.104 164.279 361.208 162.699C361.359 160.395 362.202 158.809 363.777 158.493L363.843 158.483L364.312 158.389C366.21 158.007 366.868 157.875 367.137 158.618C367.325 159.134 367.085 159.385 366.718 159.771C366.252 160.261 365.2 161.37 366.173 163.155C366.38 163.534 366.796 163.509 367.354 163.205C369.523 162.02 372.939 157.668 376.288 153.403C378.574 150.489 380.832 147.613 382.71 145.732C384.308 144.13 385.85 143.133 387.213 142.609C389.691 138.284 393.343 131.841 397.656 124.021C405.779 109.293 419.285 86.4826 419.323 86.4166C419.497 86.12 419.836 85.9805 420.154 86.0421C420.701 86.1141 425.503 86.8101 431.078 90.0272L432.398 87.1522C443.874 62.1771 454.993 37.9846 456.655 35.4355C457.216 34.5751 457.993 33.8571 458.916 33.2785C460.26 32.4372 461.926 31.8939 463.692 31.6311C463.534 31.2405 463.406 30.8382 463.314 30.4226C462.753 27.8926 463.965 25.6593 465.982 23.9927C467.093 23.075 468.453 22.3305 469.885 21.8093C468.859 20.8152 467.995 19.7874 467.455 18.8227C466.683 17.4395 466.703 16.1224 467.238 14.9594C467.633 14.1005 468.313 13.3443 469.154 12.7261L469.149 12.7158C467.973 9.68514 470.832 5.82633 472.253 4.16562L467.508 1.92786C466.876 4.12745 465.023 9.47223 461.637 10.6587C461.089 10.851 460.554 10.9597 460.041 10.992C459.995 13.66 459.197 16.1561 457.034 17.0401C456.429 17.2868 455.784 17.4644 455.12 17.579C455.781 20.7462 455.545 24.0147 453.785 25.6094C453.034 26.2907 452.065 26.693 450.985 26.8721C451.426 28.2025 451.641 29.6253 451.531 31.0878C450.97 38.5925 438.694 56.8191 431.579 67.3838L430.324 69.2472C429.445 70.554 428.641 71.7977 427.898 72.9445C422.818 80.7869 420.516 84.3374 412.089 82.3625C407.161 81.2069 400.947 81.5196 395.758 84.518C391.705 86.86 388.264 90.8598 386.542 97.1061C384.289 105.273 384.081 111.038 383.929 115.268C383.804 118.723 383.715 121.197 382.607 123.232C382.359 123.688 382.022 124.08 381.612 124.407C380.538 125.268 378.954 125.673 377.144 125.708C377.648 127.818 377.869 130.206 377.725 132.668C377.44 137.537 375.734 142.728 371.972 146.653C371.211 147.447 370.363 148.191 369.421 148.873C368.384 149.622 367.332 150.21 366.277 150.655C361.731 152.573 357.16 151.846 353.375 150.147C352.9 149.934 352.437 149.704 351.987 149.463C351.397 150.84 350.468 152.282 349.168 153.852C346.486 157.093 342.182 160.932 335.949 166.005C331.588 169.557 329.63 175.689 329.228 182.438C328.795 189.766 330.194 197.789 332.362 204.08C334.522 204.84 336.472 205.671 338.144 206.564C343.127 209.226 346.547 212.972 349.547 216.255L350.243 217.017L351.285 217.201C353.875 217.649 356.354 218.016 358.432 218.303C360.686 218.615 361.919 219.39 362.405 220.278C362.735 220.88 362.748 221.515 362.514 222.112C362.306 222.64 361.901 223.126 361.356 223.509H361.353C360.128 224.369 358.107 224.764 356.094 223.902C353.687 222.873 351.644 220.855 349.449 218.483C347.365 218.099 345.267 217.666 343.312 217.185C340.218 216.423 338.096 215.613 336.4 214.246C334.699 212.874 333.484 210.985 332.215 208.071C331.837 207.203 331.472 206.281 331.125 205.317C321.542 202.074 308.016 200.225 296.718 200.607C293.312 200.721 290.115 201.04 287.298 201.583C287.257 202.614 287.212 203.577 287.163 204.461C287.017 207.078 286.838 208.988 286.08 210.687C285.312 212.411 283.989 213.834 281.574 215.412C277.038 218.378 273.593 218.832 271.349 217.886C270.105 217.362 269.226 216.423 268.725 215.236C268.244 214.1 268.119 212.743 268.361 211.327C268.936 207.965 271.597 204.187 276.454 202.285C278.499 201.485 280.135 201.324 281.382 201.613C281.679 201.494 281.986 201.379 282.299 201.269C283.366 200.895 284.527 200.569 285.768 200.29C286.244 186.722 286.091 163.409 286.041 157.27C279.272 161.995 271.584 165.709 263.527 168.001C255.743 170.215 247.613 171.101 239.632 170.294C239.995 176.409 241.943 211.05 240.266 225.145C239.969 227.651 239.078 229.92 237.617 231.789C236.21 233.589 234.28 235.007 231.85 235.902C225.179 238.354 220.189 237.624 217.311 235.442C216.266 234.651 215.495 233.667 215.015 232.574C204.107 232.602 198.455 227.594 190.074 220.161C188.144 218.449 186.066 216.606 183.758 214.681C181.027 212.404 177.8 210.367 173.663 208.941C171.607 208.234 169.326 207.676 166.767 207.314C166.189 208.147 165.561 208.959 164.876 209.747C162.217 212.813 159.086 215.169 155.639 216.919C154.744 217.374 153.827 217.788 152.892 218.164C152.789 221.861 151.671 224.518 148.193 227.241C130.712 240.938 116.734 234.451 100.933 227.117C82.6645 218.637 61.8942 208.996 30.2179 229.404L30.2164 229.388ZM151.296 217.066C151.271 215.152 151.009 212.928 150.692 210.244L150.67 210.063C150.541 208.971 150.4 207.846 150.249 206.689C149.981 206.668 149.715 206.646 149.452 206.623C147.421 207.501 145.251 208.163 143.033 208.552C138.854 209.285 134.485 209.057 130.509 207.499C129.261 207.01 128.081 206.382 126.983 205.638C122.917 202.88 119.904 198.507 118.364 193.665C116.823 188.822 116.753 183.495 118.572 178.831C119.048 177.611 119.658 176.431 120.406 175.313L120.442 175.256C124.05 169.914 130.184 166.064 136.946 164.309C139.094 163.751 141.307 163.405 143.526 163.289C142.478 156.561 141.493 149.886 140.689 143.569C139.569 144.553 138.422 145.538 137.233 146.557C131.337 151.614 124.432 157.539 114.876 168.692C108.98 176.586 107.043 185.446 108.202 193.525C108.775 197.515 110.106 201.319 112.087 204.721C114.068 208.125 116.699 211.125 119.872 213.509C125.922 218.057 133.968 220.387 143.287 219.044C146.052 218.646 148.743 218 151.296 217.067V217.066ZM152.262 210.057C152.55 212.509 152.798 214.603 152.874 216.445C153.57 216.149 154.256 215.832 154.929 215.49C158.197 213.829 161.166 211.598 163.682 208.696C164.139 208.169 164.572 207.63 164.977 207.082C162.845 206.868 160.53 206.783 158.008 206.852C155.809 206.912 153.762 206.889 151.857 206.79C151.993 207.846 152.121 208.877 152.24 209.875L152.262 210.056V210.057ZM149.978 204.641C148.922 196.852 147.464 187.841 145.948 178.464L145.522 175.823C144.339 175.834 143.11 175.975 141.842 176.262C138.948 176.918 136.1 178.384 133.851 180.344C131.749 182.176 130.184 184.435 129.621 186.849C129.36 187.97 129.214 189.195 129.248 190.456C129.317 193.029 130.134 195.788 132.249 198.209C134.399 200.672 137.898 202.801 143.322 204.069C145.075 204.479 147.025 204.799 149.191 205.011C149.457 204.892 149.717 204.768 149.977 204.642L149.978 204.641ZM147.506 178.216C148.989 187.392 150.416 196.221 151.466 203.855C152.5 203.266 153.476 202.616 154.378 201.915C158.214 198.932 160.08 195.196 160.404 191.494C160.626 188.948 160.124 186.415 159.036 184.153C157.945 181.883 156.265 179.884 154.14 178.414C152.159 177.044 149.785 176.134 147.131 175.889L147.508 178.216H147.506ZM145.267 174.244C144.766 171.13 144.261 167.992 143.771 164.859C141.606 164.961 139.442 165.295 137.341 165.839C130.936 167.502 125.14 171.125 121.752 176.141L121.715 176.191C121.038 177.203 120.481 178.282 120.042 179.408C118.358 183.725 118.429 188.675 119.864 193.187C121.299 197.7 124.096 201.768 127.866 204.323C128.874 205.006 129.95 205.582 131.084 206.025C134.773 207.47 138.848 207.679 142.761 206.991C143.866 206.798 144.958 206.532 146.024 206.203C144.946 206.034 143.926 205.836 142.963 205.61C137.185 204.257 133.415 201.942 131.062 199.247C128.673 196.512 127.75 193.396 127.671 190.49C127.633 189.079 127.794 187.722 128.081 186.487C128.723 183.731 130.473 181.187 132.812 179.147C135.249 177.022 138.344 175.432 141.495 174.719C142.79 174.425 144.049 174.271 145.265 174.243L145.267 174.244ZM140.633 112.227C139.823 118.795 140.5 128.856 141.882 140.372C146.052 136.534 149.949 132.332 154.334 125.743H154.337C155.742 123.63 156.774 121.547 157.48 119.54C158.241 117.377 158.626 115.311 158.698 113.399C158.902 107.994 157.206 104.634 154.778 103.016C153.696 102.295 152.464 101.916 151.192 101.853C149.899 101.79 148.56 102.049 147.288 102.607C144.042 104.026 141.232 107.373 140.633 112.229V112.227ZM145.362 164.825C145.857 167.98 146.364 171.145 146.87 174.28C149.965 174.491 152.736 175.523 155.036 177.112C157.392 178.74 159.252 180.953 160.458 183.463C161.668 185.979 162.227 188.797 161.979 191.628C161.619 195.742 159.563 199.882 155.34 203.165C154.382 203.909 153.346 204.601 152.248 205.226C154.026 205.31 155.931 205.328 157.971 205.272C160.903 205.193 163.568 205.314 166 205.602C166.598 204.67 167.129 203.715 167.593 202.745C170.294 197.096 170.79 190.842 169.557 185.082C168.325 179.326 165.366 174.07 161.157 170.406C159.681 169.121 158.053 168.032 156.296 167.189C152.928 165.597 149.168 164.845 145.362 164.825ZM216.14 230.94C217.097 230.911 218.097 230.843 219.143 230.735C219.105 230.375 219.13 229.997 219.225 229.601C219.625 227.939 221.362 225.951 225.011 223.885C228.002 222.19 230.505 222.02 232.039 222.654C232.919 223.017 233.516 223.638 233.767 224.409C234.013 225.168 233.914 226.043 233.404 226.926C232.423 228.622 229.781 230.448 224.954 231.426C223.878 231.643 222.846 231.828 221.851 231.981C221.998 232.06 222.156 232.135 222.326 232.204C224.325 233.006 227.631 232.878 230.902 231.357C234.216 229.817 235.803 227.939 236.128 226.172C236.277 225.359 236.157 224.56 235.816 223.832C235.461 223.077 234.869 222.387 234.092 221.819C231.981 220.274 228.549 219.635 224.734 220.892C219.593 222.587 216.851 225.541 216.18 228.394C215.975 229.271 215.964 230.134 216.142 230.943L216.14 230.94ZM220.714 230.547C221.958 230.378 223.264 230.156 224.643 229.877C228.96 229.003 231.246 227.498 232.036 226.133C232.309 225.663 232.373 225.236 232.265 224.898C232.159 224.572 231.874 224.294 231.44 224.115C230.291 223.641 228.302 223.833 225.783 225.261C222.563 227.084 221.063 228.702 220.758 229.974C220.71 230.177 220.696 230.367 220.714 230.548V230.547ZM285.586 204.359C285.629 203.599 285.668 202.78 285.704 201.909C284.84 202.115 284.021 202.344 283.252 202.598C283.665 203.006 283.97 203.504 284.171 204.066C284.462 204.886 284.525 205.843 284.38 206.849L284.374 206.883C283.988 209.448 282.203 212.42 279.339 214.224C277.078 215.649 274.938 216.226 273.421 216.069C272.678 215.991 272.057 215.741 271.604 215.332C271.585 215.314 271.566 215.296 271.55 215.277C271.096 214.84 270.835 214.257 270.816 213.539C270.787 212.465 271.33 211.069 272.642 209.414C273.517 208.311 274.397 207.383 275.243 206.626C275.788 205.391 276.726 204.322 277.992 203.406C277.687 203.498 277.367 203.611 277.029 203.743C272.747 205.42 270.414 208.687 269.919 211.577C269.727 212.699 269.816 213.752 270.177 214.606C270.518 215.412 271.115 216.053 271.96 216.408C273.764 217.167 276.684 216.704 280.714 214.069C282.849 212.672 284.001 211.457 284.64 210.025C285.289 208.567 285.45 206.798 285.586 204.357V204.359ZM281.696 203.389C281.621 203.348 281.543 203.31 281.461 203.275C280.926 203.505 280.426 203.752 279.965 204.014C280.129 203.996 280.286 203.992 280.434 204C281.089 204.037 281.594 204.304 281.905 204.789C282.128 205.138 282.226 205.577 282.175 206.099V206.107C281.917 208.518 280.61 210.712 279.276 211.975C278.784 212.44 278.271 212.793 277.79 212.998C277.191 213.254 276.613 213.292 276.122 213.069L276.073 213.044C275.69 212.853 275.395 212.523 275.223 212.035C274.894 211.113 274.726 210.238 274.702 209.411C274.428 209.721 274.151 210.051 273.874 210.399C272.812 211.74 272.368 212.777 272.388 213.496C272.396 213.768 272.481 213.979 272.627 214.129L272.658 214.155C272.86 214.337 273.175 214.453 273.578 214.496C274.777 214.621 276.546 214.116 278.495 212.888C280.958 211.336 282.488 208.809 282.811 206.643L282.814 206.621C282.924 205.868 282.883 205.169 282.679 204.595C282.494 204.077 282.169 203.655 281.694 203.391L281.696 203.389ZM279.241 205.83C278.476 206.14 277.557 206.712 276.565 207.563C276.508 207.721 276.458 207.883 276.418 208.047C276.172 209.057 276.253 210.207 276.714 211.501C276.739 211.57 276.758 211.609 276.772 211.621L276.779 211.624C276.845 211.655 276.984 211.624 277.173 211.543H277.176C277.481 211.414 277.833 211.166 278.195 210.822C279.304 209.774 280.391 207.947 280.605 205.94C280.618 205.792 280.608 205.693 280.576 205.643C280.554 205.608 280.473 205.586 280.347 205.579C280.07 205.564 279.694 205.646 279.239 205.83H279.241ZM337.401 207.941C336.118 207.256 334.664 206.607 333.074 206C333.266 206.488 333.462 206.962 333.661 207.422C334.825 210.095 335.911 211.805 337.388 212.997C338.874 214.195 340.817 214.925 343.687 215.631C344.959 215.945 346.297 216.238 347.655 216.511C344.913 213.525 341.758 210.27 337.4 207.941H337.401ZM352.059 218.923C353.595 220.475 355.091 221.738 356.71 222.431C358.169 223.055 359.599 222.795 360.447 222.2C360.741 221.992 360.95 221.756 361.042 221.521C361.107 221.355 361.107 221.183 361.02 221.026C360.752 220.538 359.904 220.088 358.223 219.856C356.382 219.602 354.256 219.289 352.061 218.923H352.059ZM351.077 147.07C351.211 146.371 351.235 145.688 351.161 145.008C350.931 142.938 349.373 141.609 347.903 141.093C347.392 140.914 346.901 140.836 346.492 140.864C346.185 140.885 345.951 140.958 345.838 141.085C345.724 141.214 345.727 141.478 345.904 141.902C346.023 142.184 346.222 142.524 346.493 142.899C347.393 144.149 349.005 145.71 351.077 147.07ZM374.979 123.977C374.604 122.99 374.153 122.122 373.638 121.409C373.394 121.07 373.133 120.766 372.859 120.501C370.542 118.272 367.302 116.988 365.156 116.864C364.607 116.832 364.155 116.877 363.849 117.004C363.689 117.07 363.588 117.155 363.572 117.253V117.256C363.516 117.572 363.745 118.095 364.354 118.858C365.187 119.901 366.449 120.858 367.921 121.663C370.06 122.832 372.623 123.664 374.979 123.977ZM448.596 25.3583C448.199 24.6535 447.736 23.9927 447.232 23.3907C446.223 22.1852 445.061 21.2161 443.945 20.5847C442.894 19.99 441.905 19.6993 441.163 19.8065C440.822 19.8549 440.542 20.0003 440.353 20.2514C440.152 20.5201 440.189 20.8681 440.397 21.2469C440.685 21.774 441.255 22.3335 442.003 22.868C442.794 23.4347 443.772 23.9604 444.827 24.3848C446.045 24.8752 447.359 25.2305 448.596 25.3597V25.3583ZM453.11 16.1473C453.013 15.8566 452.909 15.5688 452.799 15.2884C452.427 14.3413 451.975 13.4676 451.476 12.7481C451.002 12.0653 450.494 11.5323 449.981 11.2254C449.339 10.8393 448.649 10.8466 447.988 11.4516C447.301 12.0815 447.002 12.6497 447 13.1416V13.1446C447 13.5469 447.202 13.9433 447.553 14.306C447.964 14.7333 448.57 15.1092 449.292 15.4088C450.4 15.8684 451.75 16.1385 453.108 16.1473H453.11ZM458.378 9.12717C458.352 8.89517 458.321 8.66317 458.286 8.43558H458.283C458.076 7.09791 457.723 5.8645 457.327 4.98937C457.058 4.39322 456.879 4.00998 456.872 4.01145H456.861C456.82 4.02613 456.942 4.06137 456.892 4.18765C456.441 5.31975 456.428 6.40045 456.735 7.28293C456.889 7.7249 457.127 8.11842 457.43 8.44292L457.462 8.47963C457.722 8.74834 458.031 8.96859 458.381 9.1257L458.378 9.12717ZM471.537 13.1651C472.492 13.7789 473.956 14.0535 475.241 14.0505C475.924 14.0505 476.546 13.9639 477 13.8039C477.27 13.7099 477.44 13.6306 477.448 13.5851C477.456 13.5454 477.352 13.4265 477.1 13.2048C476.151 12.3737 474.424 12.3017 472.746 12.7452C472.334 12.8538 471.926 12.9948 471.537 13.1637V13.1651ZM473.241 22.6007C474.629 23.6477 476.091 24.5375 477.314 25.0808C477.979 25.3759 478.55 25.5594 478.964 25.5932C479.109 25.605 479.156 25.7004 479.17 25.6637L479.176 25.6505C479.22 25.5051 479.122 25.1615 478.839 24.5771C478.156 23.1616 476.499 22.5391 474.564 22.5214C474.133 22.5185 473.688 22.5449 473.238 22.5993L473.241 22.6007ZM466.347 33.0142C467.866 34.8702 470.183 36.2108 472.133 36.8422C472.971 37.1139 473.726 37.2475 474.298 37.2299C474.661 37.2181 474.896 37.1697 474.938 37.0845C474.991 36.9773 474.903 36.7189 474.627 36.2769C474.265 35.6969 473.726 35.1845 473.061 34.7484C471.381 33.6486 468.953 33.0554 466.485 33.0172H466.346L466.347 33.0142ZM405.971 143.569C408.7 138.647 419.484 115.237 430.418 91.4471C425.836 88.7733 421.794 87.9011 420.412 87.6647C418.473 90.9464 406.494 111.254 399.041 124.768C395.122 131.875 391.744 137.85 389.297 142.134L389.442 142.132H389.465C390.23 142.129 390.891 142.306 391.419 142.625C391.989 142.97 392.402 143.475 392.619 144.095C392.949 145.033 392.81 146.216 392.065 147.459C389.394 151.921 384.149 149.73 384.134 149.724C383.73 149.563 383.533 149.1 383.696 148.697C383.71 148.658 383.728 148.622 383.749 148.588C383.754 148.578 384.453 147.387 385.704 145.221C385.104 145.654 384.477 146.189 383.828 146.839C382.009 148.661 379.784 151.497 377.531 154.367C374.085 158.756 370.571 163.235 368.109 164.58C366.68 165.361 365.531 165.262 364.788 163.898C363.842 162.16 364.101 160.85 364.604 159.929L364.157 160.02L364.089 160.037C363.32 160.191 362.889 161.232 362.788 162.785C362.696 164.21 362.898 166.004 363.384 167.958C363.875 169.93 364.656 172.059 365.711 174.133C368.9 180.394 374.603 186.095 382.409 185.207C389.832 184.363 395.031 182.542 398.947 181.072C398.548 176.263 401.216 169.499 403.278 164.271C404.649 160.793 405.734 158.044 405.449 157.539C405.4 157.451 405.344 157.778 404.923 158.015C401.711 159.825 401.123 162.97 400.821 164.585C400.668 165.409 400.566 165.963 400.087 166.224C399.409 166.594 398.85 166.158 398.044 164.675C395.968 160.862 398.554 156.417 402.753 149.202C403.755 147.479 404.853 145.592 405.974 143.572L405.971 143.569ZM399.332 164.654C399.242 164.826 399.171 164.919 399.33 164.832C399.426 164.779 399.384 164.738 399.332 164.654ZM400.7 182.096C401.254 184.42 402.694 185.433 404.283 185.637C405.59 185.805 407.01 185.457 408.161 184.844C409.252 184.263 410.072 183.471 410.259 182.703C410.379 182.21 410.174 181.687 409.499 181.217C407.262 179.667 404.739 180.568 400.7 182.096ZM389.449 143.71C389.098 143.713 388.709 143.77 388.289 143.889C387.053 146.043 386.136 147.623 385.611 148.525C386.91 148.815 389.319 148.968 390.708 146.647C391.193 145.836 391.306 145.128 391.126 144.615C391.033 144.352 390.853 144.133 390.6 143.98C390.308 143.804 389.92 143.706 389.452 143.71H389.449ZM434.111 146.407C433.551 149.829 433.815 152.526 434.388 154.129C434.598 154.715 434.829 155.115 435.051 155.303L435.07 155.322L435.102 155.351C435.38 155.15 435.651 154.501 435.848 153.314C436.189 151.265 435.464 148.579 434.11 146.406L434.111 146.407ZM417.903 179.707C418.483 180.203 419.163 180.637 419.953 181.013C422.478 182.217 424.145 182.263 425.047 181.759C425.373 181.577 425.585 181.314 425.688 181.015C425.796 180.699 425.789 180.331 425.67 179.962C425.38 179.063 424.457 178.182 422.93 177.855C422.365 177.735 421.806 177.726 421.263 177.817C420.059 178.018 418.907 178.701 417.903 179.707ZM382.669 231.294C385.056 231.229 387.607 230.826 390.14 229.971C389.103 229.376 388.086 228.757 387.091 228.114C381.643 224.592 377.069 223.71 374.107 224.192C373.128 224.35 372.343 224.66 371.781 225.068C371.292 225.424 370.989 225.852 370.899 226.306C370.794 226.845 370.98 227.469 371.502 228.109C371.639 228.278 371.801 228.442 371.979 228.598C373.855 230.228 377.91 231.423 382.667 231.295L382.669 231.294ZM465.588 207.795C467.029 206.972 468.436 206.188 469.788 205.436C467.25 205.055 466.309 203.807 466.462 202.121C466.668 199.835 469.394 196.711 472.705 194.23C475.987 191.769 479.905 189.878 482.538 190.025C484.698 190.145 486.082 191.414 485.917 194.4C485.744 197.519 482.006 200.269 476.487 203.483C478.155 203.153 479.776 202.66 481.275 202.03C484.428 200.704 487.015 198.786 488.302 196.534C488.703 195.83 488.966 195.162 489.105 194.534C489.382 193.286 489.185 192.16 488.653 191.195C488.104 190.201 487.189 189.358 486.062 188.71C485.166 188.196 484.141 187.809 483.06 187.568C482.857 187.523 482.627 187.478 482.375 187.434C478.578 186.782 474.054 187.539 470.207 189.663C466.387 191.773 463.248 195.239 462.19 200.015C462.143 200.23 462.095 200.47 462.049 200.732C461.869 204.257 463.298 206.551 465.593 207.795H465.588ZM472.463 203.95C479.285 200.144 484.181 197.196 484.341 194.314C484.443 192.456 483.668 191.672 482.452 191.605C480.198 191.48 476.675 193.226 473.65 195.494C470.653 197.742 468.195 200.444 468.031 202.263C467.954 203.121 468.645 203.757 470.482 203.93C471.137 203.965 471.799 203.971 472.463 203.949V203.95ZM492.034 124.049C492.062 124.122 492.08 124.202 492.084 124.284L492.034 124.049Z" fill="#0A0C06" stroke="black" stroke-width="12" mask="url(#path-2-inside-1_1_145)"/>
</g>
<path d="M183.5 139V92.4545H203.591C207.045 92.4545 210.068 93.1364 212.659 94.5C215.25 95.8636 217.265 97.7803 218.705 100.25C220.144 102.72 220.864 105.606 220.864 108.909C220.864 112.242 220.121 115.129 218.636 117.568C217.167 120.008 215.098 121.886 212.432 123.205C209.78 124.523 206.682 125.182 203.136 125.182H191.136V115.364H200.591C202.076 115.364 203.341 115.106 204.386 114.591C205.447 114.061 206.258 113.311 206.818 112.341C207.394 111.371 207.682 110.227 207.682 108.909C207.682 107.576 207.394 106.439 206.818 105.5C206.258 104.545 205.447 103.818 204.386 103.318C203.341 102.803 202.076 102.545 200.591 102.545H196.136V139H183.5ZM241.75 139.636C237.962 139.636 234.72 138.886 232.023 137.386C229.326 135.871 227.258 133.765 225.818 131.068C224.379 128.356 223.659 125.212 223.659 121.636C223.659 118.061 224.379 114.924 225.818 112.227C227.258 109.515 229.326 107.409 232.023 105.909C234.72 104.394 237.962 103.636 241.75 103.636C245.538 103.636 248.78 104.394 251.477 105.909C254.174 107.409 256.242 109.515 257.682 112.227C259.121 114.924 259.841 118.061 259.841 121.636C259.841 125.212 259.121 128.356 257.682 131.068C256.242 133.765 254.174 135.871 251.477 137.386C248.78 138.886 245.538 139.636 241.75 139.636ZM241.841 130.364C242.902 130.364 243.818 130.008 244.591 129.295C245.364 128.583 245.962 127.568 246.386 126.25C246.811 124.932 247.023 123.364 247.023 121.545C247.023 119.712 246.811 118.144 246.386 116.841C245.962 115.523 245.364 114.508 244.591 113.795C243.818 113.083 242.902 112.727 241.841 112.727C240.72 112.727 239.758 113.083 238.955 113.795C238.152 114.508 237.538 115.523 237.114 116.841C236.689 118.144 236.477 119.712 236.477 121.545C236.477 123.364 236.689 124.932 237.114 126.25C237.538 127.568 238.152 128.583 238.955 129.295C239.758 130.008 240.72 130.364 241.841 130.364ZM287.568 123.727V104.091H300.114V139H288.205V132.364H287.841C287.083 134.591 285.758 136.333 283.864 137.591C281.97 138.833 279.72 139.455 277.114 139.455C274.674 139.455 272.538 138.894 270.705 137.773C268.886 136.652 267.47 135.106 266.455 133.136C265.455 131.167 264.947 128.909 264.932 126.364V104.091H277.477V123.727C277.492 125.455 277.932 126.811 278.795 127.795C279.674 128.78 280.902 129.273 282.477 129.273C283.523 129.273 284.424 129.053 285.182 128.614C285.955 128.159 286.545 127.523 286.955 126.705C287.379 125.871 287.583 124.879 287.568 123.727ZM306.494 139V104.091H318.676V110.727H319.04C319.676 108.273 320.684 106.477 322.062 105.341C323.456 104.205 325.085 103.636 326.949 103.636C327.494 103.636 328.032 103.682 328.562 103.773C329.108 103.848 329.631 103.962 330.131 104.114V114.818C329.509 114.606 328.744 114.447 327.835 114.341C326.926 114.235 326.146 114.182 325.494 114.182C324.267 114.182 323.161 114.462 322.176 115.023C321.206 115.568 320.441 116.341 319.881 117.341C319.32 118.326 319.04 119.485 319.04 120.818V139H306.494ZM460.29 102.636V92.4545H500.744V102.636H486.744V139H474.29V102.636H460.29ZM517.438 139.636C513.65 139.636 510.407 138.886 507.71 137.386C505.013 135.871 502.945 133.765 501.506 131.068C500.066 128.356 499.347 125.212 499.347 121.636C499.347 118.061 500.066 114.924 501.506 112.227C502.945 109.515 505.013 107.409 507.71 105.909C510.407 104.394 513.65 103.636 517.438 103.636C521.225 103.636 524.468 104.394 527.165 105.909C529.862 107.409 531.93 109.515 533.369 112.227C534.809 114.924 535.528 118.061 535.528 121.636C535.528 125.212 534.809 128.356 533.369 131.068C531.93 133.765 529.862 135.871 527.165 137.386C524.468 138.886 521.225 139.636 517.438 139.636ZM517.528 130.364C518.589 130.364 519.506 130.008 520.278 129.295C521.051 128.583 521.65 127.568 522.074 126.25C522.498 124.932 522.71 123.364 522.71 121.545C522.71 119.712 522.498 118.144 522.074 116.841C521.65 115.523 521.051 114.508 520.278 113.795C519.506 113.083 518.589 112.727 517.528 112.727C516.407 112.727 515.445 113.083 514.642 113.795C513.839 114.508 513.225 115.523 512.801 116.841C512.377 118.144 512.165 119.712 512.165 121.545C512.165 123.364 512.377 124.932 512.801 126.25C513.225 127.568 513.839 128.583 514.642 129.295C515.445 130.008 516.407 130.364 517.528 130.364ZM563.256 123.727V104.091H575.801V139H563.892V132.364H563.528C562.771 134.591 561.445 136.333 559.551 137.591C557.657 138.833 555.407 139.455 552.801 139.455C550.362 139.455 548.225 138.894 546.392 137.773C544.574 136.652 543.157 135.106 542.142 133.136C541.142 131.167 540.634 128.909 540.619 126.364V104.091H553.165V123.727C553.18 125.455 553.619 126.811 554.483 127.795C555.362 128.78 556.589 129.273 558.165 129.273C559.21 129.273 560.112 129.053 560.869 128.614C561.642 128.159 562.233 127.523 562.642 126.705C563.066 125.871 563.271 124.879 563.256 123.727ZM614.091 115.455H602.545C602.485 114.742 602.235 114.129 601.795 113.614C601.356 113.098 600.788 112.705 600.091 112.432C599.409 112.144 598.652 112 597.818 112C596.742 112 595.818 112.197 595.045 112.591C594.273 112.985 593.894 113.545 593.909 114.273C593.894 114.788 594.114 115.265 594.568 115.705C595.038 116.144 595.939 116.485 597.273 116.727L604.364 118C607.939 118.652 610.598 119.75 612.341 121.295C614.098 122.826 614.985 124.879 615 127.455C614.985 129.939 614.242 132.098 612.773 133.932C611.318 135.75 609.326 137.159 606.795 138.159C604.28 139.144 601.409 139.636 598.182 139.636C592.848 139.636 588.674 138.545 585.659 136.364C582.659 134.182 580.985 131.303 580.636 127.727H593.091C593.258 128.833 593.803 129.689 594.727 130.295C595.667 130.886 596.848 131.182 598.273 131.182C599.424 131.182 600.371 130.985 601.114 130.591C601.871 130.197 602.258 129.636 602.273 128.909C602.258 128.242 601.924 127.712 601.273 127.318C600.636 126.924 599.636 126.606 598.273 126.364L592.091 125.273C588.53 124.652 585.864 123.47 584.091 121.727C582.318 119.985 581.439 117.742 581.455 115C581.439 112.576 582.076 110.523 583.364 108.841C584.667 107.144 586.523 105.856 588.932 104.977C591.356 104.083 594.227 103.636 597.545 103.636C602.591 103.636 606.568 104.682 609.477 106.773C612.402 108.864 613.939 111.758 614.091 115.455Z" fill="#C54F00"/>
<defs>
<clipPath id="clip0_1_145">
<rect width="588" height="238" fill="white" transform="translate(29)"/>
</clipPath>
</defs>
</svg>
